<svg width="15" height="14" viewBox="0 0 15 14" fill="none" xmlns="http://www.w3.org/2000/svg">
<path d="M7.14977 3.73688C5.1266 3.73688 3.4947 5.19378 3.4947 6.99999C3.4947 8.8062 5.1266 10.2631 7.14977 10.2631C9.17295 10.2631 10.8049 8.8062 10.8049 6.99999C10.8049 5.19378 9.17295 3.73688 7.14977 3.73688ZM7.14977 9.12144C5.84234 9.12144 4.7735 8.17005 4.7735 6.99999C4.7735 5.82993 5.83916 4.87854 7.14977 4.87854C8.46039 4.87854 9.52605 5.82993 9.52605 6.99999C9.52605 8.17005 8.4572 9.12144 7.14977 9.12144ZM11.8069 3.6034C11.8069 4.02655 11.4252 4.36451 10.9544 4.36451C10.4804 4.36451 10.1018 4.02371 10.1018 3.6034C10.1018 3.18309 10.4836 2.84229 10.9544 2.84229C11.4252 2.84229 11.8069 3.18309 11.8069 3.6034ZM14.2277 4.37587C14.1736 3.35632 13.9128 2.45322 13.0762 1.70915C12.2427 0.965078 11.2311 0.732201 10.0891 0.681082C8.9121 0.621443 5.38427 0.621443 4.20726 0.681082C3.06843 0.729361 2.05684 0.962238 1.22021 1.70631C0.383585 2.45038 0.125917 3.35348 0.0686569 4.37303C0.00185394 5.42381 0.00185394 8.57333 0.0686569 9.62411C0.122736 10.6437 0.383585 11.5468 1.22021 12.2908C2.05684 13.0349 3.06525 13.2678 4.20726 13.3189C5.38427 13.3785 8.9121 13.3785 10.0891 13.3189C11.2311 13.2706 12.2427 13.0377 13.0762 12.2908C13.9096 11.5468 14.1705 10.6437 14.2277 9.62411C14.2945 8.57333 14.2945 5.42665 14.2277 4.37587ZM12.7071 10.7516C12.459 11.3082 11.9787 11.737 11.352 11.9614C10.4136 12.2937 8.18681 12.217 7.14977 12.217C6.11274 12.217 3.88279 12.2908 2.94755 11.9614C2.32405 11.7399 1.84371 11.311 1.5924 10.7516C1.22021 9.91379 1.3061 7.92582 1.3061 6.99999C1.3061 6.07416 1.22339 4.08335 1.5924 3.2484C1.84053 2.69177 2.32087 2.26294 2.94755 2.03858C3.88597 1.70631 6.11274 1.78299 7.14977 1.78299C8.18681 1.78299 10.4168 1.70915 11.352 2.03858C11.9755 2.2601 12.4558 2.68893 12.7071 3.2484C13.0793 4.08619 12.9934 6.07416 12.9934 6.99999C12.9934 7.92582 13.0793 9.91663 12.7071 10.7516Z" fill="white"/>
</svg>
