<svg width="9" height="14" viewBox="0 0 9 14" fill="none" xmlns="http://www.w3.org/2000/svg">
<path d="M7.45228 8.93634C6.78007 9.36874 5.85517 9.5402 5.2443 9.60481L5.75704 10.1167L7.62891 12.0128C8.31339 12.7235 7.19958 13.8343 6.50775 13.1485C6.03917 12.6664 5.35224 11.9706 4.63588 11.2449L2.764 13.146C2.07217 13.8294 0.958368 12.7086 1.6502 12.0103C2.12614 11.5282 2.80571 10.8324 3.52208 10.1142L4.02746 9.60233C3.42394 9.53772 2.48433 9.37619 1.80476 8.93386C1.00498 8.412 0.654158 8.10634 0.963275 7.46769C1.14482 7.10488 1.64284 6.79922 2.30278 7.32605C2.30278 7.32605 3.19333 8.04422 4.63097 8.04422C6.06861 8.04422 6.95916 7.32605 6.95916 7.32605C7.6191 6.80171 8.11467 7.10488 8.29867 7.46769C8.60288 8.10634 8.25205 8.412 7.45228 8.93634ZM1.44658 3.85944C1.44658 2.07768 2.87686 0.636368 4.62852 0.636368C6.38018 0.636368 7.81046 2.07768 7.81046 3.85944C7.81046 5.63375 6.38018 7.07506 4.62852 7.07506C2.87686 7.07506 1.44658 5.63375 1.44658 3.85944ZM3.06576 3.85944C3.06576 4.73168 3.76741 5.4424 4.62852 5.4424C5.48963 5.4424 6.19128 4.73168 6.19128 3.85944C6.19128 2.97974 5.48963 2.26903 4.62852 2.26903C3.76741 2.26903 3.06576 2.97974 3.06576 3.85944Z" fill="white"/>
</svg>
