<svg width="15" height="12" viewBox="0 0 15 12" fill="none" xmlns="http://www.w3.org/2000/svg">
<path d="M13.4659 3.44365C13.4721 3.55397 13.4744 3.66565 13.4744 3.77596C13.4744 7.17399 10.5319 11.0909 5.15132 11.0909C3.49833 11.0909 1.96158 10.6653 0.666626 9.93531C1.43258 10.0167 2.20927 9.96465 2.95232 9.78214C3.69537 9.59963 4.3902 9.29023 4.9971 8.87164C4.38676 8.8615 3.79527 8.68402 3.30535 8.36401C2.81542 8.044 2.45155 7.59746 2.26459 7.08682C2.70327 7.15891 3.15474 7.14378 3.5859 7.04256C2.92378 6.92458 2.32845 6.60908 1.90079 6.14951C1.47312 5.68995 1.23943 5.11459 1.23932 4.52094V4.48893C1.64555 4.6875 2.09989 4.79793 2.5645 4.81103C1.94444 4.44779 1.5055 3.89031 1.33729 3.25237C1.16908 2.61443 1.28427 1.94413 1.65935 1.37828C2.39385 2.1726 3.31029 2.82227 4.34914 3.28509C5.38799 3.74791 6.52602 4.01353 7.68931 4.06469C7.63898 3.8724 7.61376 3.67569 7.61414 3.47838C7.61414 3.14092 7.68979 2.80676 7.83678 2.495C7.98377 2.18323 8.19922 1.89997 8.47081 1.66138C8.7424 1.42279 9.06483 1.23355 9.41966 1.10447C9.7745 0.975393 10.1548 0.909002 10.5388 0.909092C10.9391 0.908518 11.3352 0.980212 11.7026 1.11973C12.07 1.25924 12.4008 1.4636 12.6746 1.72012C13.3296 1.6062 13.9577 1.39527 14.5322 1.09636C14.3137 1.69166 13.8565 2.19695 13.2458 2.51822C13.8256 2.45781 14.392 2.32147 14.9259 2.11372C14.5336 2.63019 14.0391 3.08064 13.4659 3.44365Z" fill="white"/>
</svg>
