<svg width="15" height="10" viewBox="0 0 15 10" fill="none" xmlns="http://www.w3.org/2000/svg">
<path fill-rule="evenodd" clip-rule="evenodd" d="M12.4037 6.42692C12.4037 6.42692 13.5236 7.67126 13.8007 8.24707C13.8061 8.25537 13.8103 8.26458 13.8131 8.27434C13.926 8.48705 13.9537 8.6538 13.8983 8.77691C13.8048 8.98027 13.4883 9.08235 13.381 9.09092H11.4015C11.2637 9.09092 10.977 9.0504 10.6279 8.77925C10.3612 8.56965 10.096 8.22447 9.83903 7.88709C9.45534 7.38608 9.12358 6.9513 8.78768 6.9513C8.74525 6.9512 8.70311 6.9591 8.66301 6.97468C8.40883 7.06506 8.08608 7.47257 8.08608 8.55796C8.08608 8.89768 7.84783 9.09092 7.68091 9.09092H6.77431C6.46541 9.09092 4.85721 8.96937 3.43116 7.27777C1.68375 5.20673 0.114329 1.05216 0.0990924 1.01554C0.00143673 0.746726 0.206444 0.600241 0.428074 0.600241H2.4269C2.69493 0.600241 2.7822 0.782568 2.84315 0.946195C2.91379 1.13398 3.17559 1.8851 3.605 2.72895C4.30036 4.10186 4.72769 4.66052 5.06914 4.66052C5.13329 4.66074 5.19636 4.64192 5.25199 4.60598C5.69802 4.33015 5.61491 2.53805 5.59413 2.16872C5.59413 2.09704 5.59344 1.36851 5.36488 1.01632C5.20143 0.763868 4.92301 0.665692 4.75471 0.629849C4.79972 0.556607 4.8953 0.444406 5.01789 0.378176C5.32332 0.206757 5.87532 0.181824 6.42316 0.181824H6.72721C7.32146 0.191174 7.47521 0.234028 7.6913 0.295583C8.12625 0.41246 8.13456 0.729584 8.09647 1.80952C8.08539 2.11807 8.07361 2.46559 8.07361 2.87465C8.07361 2.96192 8.07015 3.05932 8.07015 3.15827C8.05699 3.71227 8.03968 4.33639 8.38736 4.59274C8.43245 4.62434 8.48452 4.64108 8.53765 4.64104C8.65816 4.64104 9.019 4.64104 9.99764 2.75154C10.427 1.91705 10.7595 0.932949 10.7823 0.858927C10.8017 0.817631 10.8599 0.701534 10.9306 0.654783C10.9808 0.624703 11.0371 0.609677 11.094 0.611149H13.4454C13.7016 0.611149 13.8755 0.654783 13.9094 0.763868C13.9662 0.940741 13.8983 1.48071 12.8248 3.11386C12.644 3.38579 12.4854 3.6211 12.3462 3.82681C11.3731 5.26361 11.3731 5.33607 12.4037 6.42692Z" fill="white"/>
</svg>
