<svg width="1872" height="532" fill="none" xmlns="http://www.w3.org/2000/svg"><path d="M1849.46 463.32c-.88-4.746-1.69-9.566-2.77-14.294-2.66-11.449-6.9-22.415-9.43-33.876l-2.25-9.787c-.21-.932-.41-2.477-.98-3.581.41-.036.71-.471.74-.882.57.356 1.08.786 1.17 1.117.35.92 1.67.597 1.66-.353-.11-3.661-11.41-7.26-13.93-8.391-9.19-4.266-18.56-8.243-27.77-12.643-1.05-.517-2.13-1.235-3.34-2.009-.01-.135-.03-.337-.04-.472-.18-.595-.8-.675-1.25-.431-4.93-3.292-10.64-7.056-14.37-1.758-1.75 2.401-2.84 5.422-4.38 7.94-1.83 3.02-3.81 5.918-5.92 8.827-1.21-1.589-3.43-3.155-4.41-4.29-2.16-2.455-4.33-4.91-6.74-7.138.8-.888 1.53-1.837 2.12-2.842.08.129.15.258.23.386.55.902 2.1.083 1.68-.899-.91-1.956-2.25-3.466-3.8-4.958-.44-.435-1.03-.246-1.4.127l-.75.68c.37-4.383-1.8-8.468-6.03-8.289 1.73-4.167-2.24-7.274-6.71-7.549 6.41-7.036 6.08-19.512-1.39-25.701-9.72-8.091-23.25 4.687-17.5 14.429-12.39-2.209-11.13 16.503-.71 20.181-5.16 3.525 3.3 9.42 9.37 10.298-3.55 4.943 4.23 8.453 9.95 7.595a46.54 46.54 0 0 0-3.73 3.601c-.32.3-.33.913-.03 1.293 1.26 1.381 2.65 2.615 4.1 3.843.44.368 1.11.308 1.47-.133.93-1.035 1.99-2.015 3.06-2.927-.3.502-.32 1.048.12 1.416 4.3 3.824 8.95 6.938 12.82 11.21l.07.061c-3.27 3.558-6.54 7.116-8.73 11.392-.35.711.7 1.16 1.05.517 1.7-3.009 3.92-5.452 6.27-7.908l.27.792c.01.135.08.196.16.257.8 1.491 2.32 2.78 3.87 3.524-3.7.946-6.65 1.825-8.27 2.651 0-.068-.01-.135-.02-.203-.13-.735-1.2-.639-1.13.103.02.27.04.54.07.877-.12.147-.11.214-.1.349 0 .068.08.197.15.258.69 13.598 2.91 26.99 5.34 40.431 1.15 6.42 1.91 12.944 2.87 19.382.44 2.814.83 7.4 3.29 9.42 1.89 1.529 3.93 1.752 6.27 1.607 5.45-.22 11.03-1.065 16.41-2.028 13.54-2.516 26.44-7.693 40.08-9.81 5.65-.919 11.43-.287 17.07-1.341 1.39-.262 4.68-.491 5.56-1.931 1.66-2.732 1.12-5.13.59-8.14zm-31.75-70.391s.07-.006 0 0c.62.215 1.18.436 1.74.658 1.69.799 3.43 1.524 5.12 2.323-1.52 5.914-7.53-.542-8.4-2.094-.01-.068-.08-.062-.08-.129a4.27 4.27 0 0 0 1.62-.758zm8.42 3.859c1.19.572 2.39 1.144 3.51 1.721.36.172.99.455 1.75.726-.94.017-1.81.163-2.47.224-5.03.386-10.08 1.251-15.06 2.109-3.65.603-7.38 1.144-11.1 1.752 1.87-.917 3.28-2.607 3.47-5.071 3.51 3.216 9.06 3.462 9.93-1.374 3.17 3.247 8.31 4.957 9.97-.087zm-58.44 9.501c2.15-.874 3.92-3.073 4.97-5.818 1.62 1.62 3.71 2.45 5.67 2.477-1.67 4.909-6.37 6.761-10.64 3.341zm2.78 3.283c-1.2.244-2.38.555-3.58.799.29-.57.57-1.274.71-2.034.92.595 1.9.983 2.87 1.235zm25.28-18.803c-.5-.43-1.42-.142-1.43.538-1.87.237-4.12-.851-5.52-2.22 1.14-.85 1.91-2.143 2.18-3.731 1.73 1.272 4.25 2.403 6.43 2.681-.29 1.318-.89 2.187-1.66 2.732zm3.35-1.866c2.04 1.039 4.94 1.864 7.42 1.64-.9 5.246-6.51 4.259-9.59 1.411.96-.631 1.68-1.647 2.17-3.051zm-4.72 3.961c-.22 4.506-5.81 5.351-8.58 2.068 1.19-.991 2.09-2.364 2.41-4.092 1.82 1.535 4.11 2.279 6.17 2.024zm-7.15-4.857c-.13.012-.26.091-.39.171-1.94.923-4.73.632-6.6-.762 1.31-1.206 1.97-2.898 2.02-4.669 1.66 1.277 3.81 1.899 6.08 1.693.33-.03.66-.128.99-.226-.1 1.913-.94 3.144-2.1 3.793zm-.82 2.248c-.59 4.199-5.11 5.628-8.35 3.27 1.08-.844 1.77-2.198 1.89-3.976 2.05 1.106 4.42 1.299 6.46.706zm-2.54 5.803c-.25 5.799-6.72 6.589-10.2 2.894.97-.496 1.66-1.102 2.45-2.057 1.6-1.843-.1-1.962 1.94-1.058 2.02.836 4.05.857 5.81.221zm-4.34 8.412c1.07 1.467 2.62 2.21 4.18 2.341-2.19.402-4.64.895-7.16 1.395 1.27-.863 2.24-2.174 2.98-3.736zm.93-1.783c2.44-.628 4.5-2.514 5.05-5.554 1.59 1.216 3.58 1.647 5.38 1.416.19 5.352-7.53 9.653-10.43 4.138zm11.91-1.825a9.022 9.022 0 0 0 6.07 3.189c-1.86.304-3.65.67-5.51 1.042-.66.128-2.52.5-5.04.932 2.14-1.009 3.87-2.865 4.48-5.163zm.37-2.752c1.76-.77 3.11-2.252 3.4-4.453 2.39 1.959 5.63 2.888 8.2 2.113 2.11 8.168-8.85 8.547-11.6 2.34zm17.04-8.814c1.97.91 3.99 1.746 5.96 2.655-2.47 1.04-5.51.16-7.3-1.853.52-.184.97-.428 1.34-.802zm4.8 4.867c-.06.141-.05.209-.04.343.78 6.794-6.57 4.401-8.58.505.89-.624 1.62-1.573 2.04-2.903 1.76 1.608 4.18 2.341 6.58 2.055zm-12.37-8.26c1.68.732 3.37 1.531 5.05 2.262-2.25.543-4.54.479-6.72-.547.71-.337 1.34-.869 1.67-1.715zm-9.76-4.689c1.34.762 2.74 1.383 4.15 2.071 1.33.627 2.6 1.26 3.93 1.819-2.49 2.4-7.27.182-9.33-1.942.56-.459.97-1.176 1.25-1.948zm-7.91-4.926c2.04.971 3.85 2.438 5.71 3.697.14.056.29.178.36.24-1.07 4.039-7.06 2.609-9.03-.814.69-.539 2.19-1.898 2.96-3.123zm-1.94-.707c-.49.655-.9 1.304-1.34 1.751-.61.668-1.3 1.274-2.16 1.555-.52.183-.88-.056-1.18-.437 1.27-1.745 2.84-3.043 4.68-2.869zm-5.4 3.954c.68.822 1.64 1.007 2.76.702.7 1.84.72 3.673-.48 5.412-1.68 2.463-3.85 1.504-4.48-1.09-.08-.196-.22-.319-.37-.442.64-1.145 1.5-2.922 2.57-4.582zm-3.45 6.089c.52 2.196 2.15 3.951 4.38 3.206.23 5.076-5.11 4.812-8.15 2.436 1.32-1.887 2.58-3.767 3.77-5.642zm-4.43 6.585c1.71 1.817 3.87 2.641 5.81 2.465-2.04 3.787-5.73 3.985-9.55 2.631a251.86 251.86 0 0 0 3.74-5.096zm-26.49-9.497c-2.74.997-15.63-.692-9.38-5.743.69-.606.37-1.936-.63-1.778-3.73.474-16.35-5.181-8.01-7.771.92-.287.79-1.838-.16-1.888-11.51-.658-14.05-21.7-.51-16.265 1.05.449 1.82-.844 1-1.654-5.91-6.125-1.03-15.334 6.81-15.839 4.02-.229 7.28 2.332 9.24 5.62 4.07 6.564 2.22 16.518-4 21.023-1.02.704-.16 2.121.96 1.816 2.77-.727 11.22.344 6.32 6.088-.68.809.17 2.024 1.15 1.663 5.94-2.237 6.62 4.158 5.43 7.596-.05.141-.03.343-.02.478-2.64 2.278-5.42 4.432-8.2 6.654.07-.006 0 0 0 0zm-1.42 8.557c-1.02-.792-2.55-2.149-2.05-2.669 1.91-2.076 4.19-3.845 6.39-5.608 3.16-2.528 6.32-4.989 9.24-7.836.67.687 1.27 1.381 1.8 2.147-4.68 5.181-10.55 8.975-15.38 13.966zm6.09-.416a28.429 28.429 0 0 1 2.8-3.515c1.6-1.844 3.35-4.993 5.63-2.82 1.98 1.927 3.72 4.081 5.57 6.088.74.816 2.25 1.903 3.29 2.965-.05.276.04.54.26.724.07.061.22.184.29.245-.73.95-1.39 1.893-2.11 2.842-1.27 1.746-2.69 3.302-4.1 4.924-3.02-4.552-7.61-7.807-11.63-11.453zm10.9 15.597c-.08-.196-.23-.319-.37-.442 1.8-1.862 3.66-3.729 5.24-5.775.54-.729 1.09-1.458 1.63-2.187 1.78 1.063 4.01 1.949 6.14 1.687-1.27 4.057-4.25 7.793-9.54 3.447-.59-.491-1.32.391-.74.882 1.85 1.872 3.73 2.585 5.4 2.434-.93 6.54-6.58 3.45-7.76-.046zm81.19 65.238c-5.28.546-10.42.331-15.67 1.147-10.11 1.594-19.86 4.991-29.75 7.585-5.54 1.452-11.11 2.568-16.78 3.217-3.54.388-10.32 2.293-12.95-.935-2.87-3.547-2.68-11.584-3.26-16.017-.78-5.978-1.88-11.858-2.93-17.745-1.95-11.105-3.45-22.319-4.95-33.533 1.13-.238 3.07-.414 3.6-.53 3.97-.902 7.87-1.799 11.84-2.634 8.14-1.756 16.35-3.45 24.5-5.072 5.64-1.121 11.43-1.917 17.08-2.836 4.59-.755 9.11-1.504 13.71-2.124 1.73-.224 5.55-1.25 8-.995-.17.422-.11 1.029.38 1.324-.35-.239.73 3.741.94 4.605.73 3.06 1.39 6.126 2.06 9.192 1.87 8.463 4.25 16.607 6.83 24.8 2.67 8.322 4.79 17.441 5.68 26.196.4 3.973-5.79 4.058-8.33 4.355z" fill="#A8A8A8"/><path d="M1829.63 456.008c-2-6.066-3.33-12.194-4.67-18.388.47-.11.99-.293 1.37-.532.72-.336.96-1.444.05-1.837-.21-.05-.35-.105-.48-.093l-1.47.133c-.36-1.801-.78-3.597-1.13-5.331-.67-3.131-1.88-10.967-5.92-11.756-5.68-1.115-11.81 2.902-16.87 5.126-9.81 4.215-20.84 5.145-30.83 8.901-.39.171-.75.612-.71 1.083.85 6.103 2.43 11.936 4.34 17.739-.18.288-.01.748.28.926 1.62 4.743 3.35 9.339 5.17 13.997.16.392.52.564.84.467.22.184.43.3.77.27 16.29-1.61 32.15-6.033 48.25-9.187.79-.207 1.27-.795 1.01-1.518zm-53.09-23.922c9.32-2.88 19.04-4.168 27.99-8.237 3.5-1.607 7.06-3.287 10.86-3.699 4.27-.454 5.52 8.668 6.09 11.401.32 1.33.57 2.733.89 4.062-6.18 1.034-12.4 3.839-18.27 5.32-2.51.635-5.01 1.269-7.59 1.841-.92-4.466-1.68-9.423-4.1-13.346-.55-.901-1.9-.1-1.61.825 1.3 4.296 2.35 8.683 3.33 13.076-6.53 1.61-13.04 3.421-19.04 6.544-.18-.594-.36-1.121-.55-1.716a100.54 100.54 0 0 1-2.73-10.686c-.82-4.068 1.38-4.335 4.73-5.385zm3.78 32.458c-.07.006-.14.013-.2.086-1.45-4.418-2.97-8.831-4.49-13.243 6.16-2.731 12.54-4.53 19.01-6.067 1.28 5.521 2.56 11.042 4.42 16.306-6.16 1.236-12.4 2.277-18.74 2.918zm20.6-3.289c-.01-.068-.02-.135-.02-.202-1.6-5.356-2.74-10.822-3.89-16.355 1.98-.45 3.97-.901 5.95-1.352 6-1.427 11.82-3.515 17.83-4.874.67-.128 1.4-.262 2.19-.401 1.24 5.863 2.55 11.721 4.39 17.53-8.87 1.754-17.65 3.839-26.45 5.654zM249.487 58.786c-3.35-20.203-21.642-26.102-39.732-24.068-1.005.136-1.206 1.424-.469 1.83-11.726 6.645-19.699 20.747-17.287 34.51 2.881 16.203 19.364 27.322 35.243 23.457 14.808-3.66 24.657-20.95 22.245-35.729zm-21.441 33.288c-15.276 5.56-32.094-7.186-34.104-22.644-1.742-13.491 6.901-26.305 18.158-32.746 15.276.204 30.084 2.102 34.841 19.73 3.886 14.508-5.159 30.644-18.895 35.66z" fill="#A8A8A8"/><path d="M240.71 71.532c-.268-.95-1.608-.746-1.675.203-.938 19.39-37.321 18.373-36.651 0 0-.61-.938-.745-1.072-.135-2.546 10.17 9.716 15.322 17.689 16.407 8.576 1.22 24.59-5.22 21.709-16.475zM214.445 60.82c-.134-.678-.134-2.847-.67-3.797.067-.135 0-.339-.134-.474-.134-.136-.335-.271-.603-.204a.506.506 0 0 0-.268.136l-.067.068a.692.692 0 0 0-.335.407c-.402 1.288.067 3.05.268 4.339.134 1.017 0 3.39.804 4.203.469.475 1.139.339 1.474-.203.67-.882-.335-3.458-.469-4.475zM225.165 61.566c-.067-1.424 0-2.848-.134-4.272-.067-.813-1.206-.813-1.273 0-.134 1.424-.134 2.848-.134 4.272 0 .881-.402 2.44.268 3.118a.72.72 0 0 0 .469.204h.134a.72.72 0 0 0 .469-.204c.67-.61.268-2.237.201-3.118zM243.591 60.956c-.737-2.102-3.149-2.712-4.891-1.492.067-.339-.335-.746-.67-.542-1.742 1.152-2.479 3.322-1.876 5.356.67 2.44 3.417 2.78 5.427 1.898 1.943-.881 2.68-3.39 2.01-5.22zm-2.814 3.728c-3.216 1.763-4.221-2.78-2.479-4.745-.134.542.402 1.084 1.005.949 1.139-.34 2.278-.746 2.747.678.402 1.22-.201 2.508-1.273 3.118zM205.198 62.244c-.737-1.627-3.082-1.83-4.556-1.356-1.139.407-2.01 1.423-2.278 2.508-.536.746-.737 1.695-.268 2.509.603 1.152 1.876 1.695 3.149 1.559 2.345-.136 5.025-2.847 3.953-5.22zm-2.881 3.39c-.737.474-1.675.542-2.479.067.067-.135.134-.203.201-.406.067-1.22-.268-2.238 1.005-2.916.737-.407 2.01-.339 2.613.204.938.881-.536 2.508-1.34 3.05zM197.359 93.77c-2.881.474-4.891 3.321-6.432 5.559-1.407 2.101-4.288 6.373-3.685 9.084.134.611 1.005.746 1.34.204.402-.814.536-1.763.804-2.644.469-1.627 1.273-3.187 2.144-4.678 1.34-2.509 3.35-5.627 6.097-6.712.402-.204.268-.882-.268-.814zM185.634 78.65c-5.494 4.407-11.458 7.865-17.22 11.933-.938.678-.134 2.102.938 1.56.402-.204.871-.408 1.273-.543.268-.136.469-.407.469-.61 5.226-3.526 11.056-6.848 15.143-11.73.335-.406-.134-.949-.603-.61zM186.036 61.295c-2.278-.34-4.556-.068-6.834.203-1.944.271-4.155.339-5.897 1.22-.603.34-.268 1.288.335 1.288 1.943.068 3.886-.677 5.763-.949 2.211-.406 4.422-.542 6.633-.881.402-.136.402-.814 0-.881zM196.22 37.701c-6.499-7.525-8.978-16.678-9.581-26.508-.067-.882-1.34-.882-1.34 0-.268 9.356 2.68 21.22 10.184 27.254.536.407 1.206-.271.737-.746zM212.77 15.396c.134-.881-1.005-1.22-1.34-.407-1.474 4-.871 8.678.134 12.814.201.746 1.206.407 1.139-.34-.603-4.203-.603-7.931.067-12.067zM249.286.955c-.201-.813-1.608-.678-1.474.204.67 6.508-1.474 12-4.489 17.695-2.211 4.203-5.896 8.135-7.37 12.745-.134.34.335.61.603.34 4.02-4.136 7.102-10.17 9.715-15.255 2.479-4.814 4.355-10.373 3.015-15.729zM262.553 29.09c-3.886 2.035-6.901 6.713-9.18 10.374-.268.407.335.881.67.474 1.34-1.762 2.681-3.593 4.155-5.288 1.541-1.762 3.417-3.05 5.092-4.61.536-.474-.134-1.288-.737-.95zM287.21 52.549c-4.959-1.898-10.654-2.44-15.947-2.712-3.819-.203-9.648-.407-12.663 2.44-.268.272 0 .746.335.61 9.648-2.575 18.224-.677 27.873 1.221 1.005.136 1.34-1.22.402-1.56zM276.355 74.108c-1.005-.813-2.546-1.017-3.819-1.424-2.01-.677-4.02-1.288-6.03-1.898-1.139-.339-5.226-2.102-6.298-.881-.268.339.067.813.469.61.402-.271 2.077.475 2.479.61 1.474.407 2.881.882 4.355 1.356 1.541.542 3.149 1.085 4.69 1.627 1.139.407 2.479 1.22 3.752 1.153.469-.068.871-.814.402-1.153zM267.243 120.617c-2.546-2.983-7.772-4.61-11.056-6.712-5.494-3.525-9.916-8.068-11.524-14.576-.134-.543-1.005-.407-.938.135.603 5.831 4.556 10.17 8.911 13.627 3.752 3.051 9.247 7.323 14.004 8.611.67.135 1.005-.61.603-1.085zM235.35 128.142c-2.747-7.864-3.685-16.203-6.566-24.067-.202-.611-1.073-.339-.939.271 2.078 7.186 3.016 14.712 5.16 21.898 1.407 4.61 4.422 9.966 4.154 14.915-.067.814 1.072.882 1.34.204 1.273-3.932-1.876-9.627-3.149-13.221zM209.085 105.973c.201-.746-.871-1.017-1.072-.339-1.139 3.457-3.016 9.491-1.206 12.949.335.61 1.206.271 1.206-.339.134-1.831-.201-3.661-.067-5.559.134-2.238.603-4.475 1.139-6.712zM108.191 388.761c0-.602-.758-1.095-1.191-.493-1.245 1.699-2.111 2.466-4.277 2.74-1.787.219-4.44-.11-5.901-1.206-1.137-.821-2.058-2.191-2.87-3.341-.379-.494-.65-.987-1.029-1.48.109-.109.163-.219 0-.328-.324-.219-.487-.329-.812-.165-.162.055-.27.219-.325.384-.054 3.232 3.899 6.629 6.66 7.45 2.923.767 9.637.822 9.745-3.561zM100.341 383.667c.108-.603.271-1.206.433-1.808.162-.493.433-1.041.433-1.534 0-.603-.866-.767-1.191-.329-.27.384-.27 1.096-.379 1.534-.108.657-.162 1.315-.217 1.972.055.603.813.712.921.165zM105.214 379.558c-.704-.493-1.354.219-1.462.931v.11c-.163.383-.379.767-.596 1.15-.325.603-.649 1.37-1.137 1.918-.433.493.271 1.205.758.821.975-.821 1.679-2.191 2.274-3.287.379-.438.758-1.205.163-1.643z" fill="#A8A8A8"/><path d="M119.561 413.14c-1.354-1.425-3.952-2.301-5.739-1.37-.054-.109-.163-.164-.325-.219-2.599-1.15-5.143-2.52-7.742-3.67-1.137-.493-2.707-1.37-4.115-1.479 0-1.096-.054-2.137 0-3.233 0-1.314.325-3.287-.433-4.437-.379-.548-1.191-.274-1.3.329 0 .054-.053.164-.053.219-.055.274.054.493.216.602.433 1.918-.162 4.766-.162 6.629-.109 5.04.27 10.08.433 15.12v.329c-.163-.055-.38-.11-.596 0l-1.19.219c-.11 0-.218.055-.326.11-3.41.547-7.2-.658-10.449-1.425-.812-.164-2.815-.821-4.169-.657 1.678-5.095 3.194-10.299 5.143-15.285.434 0 .867 0 1.246.055.758 0 1.028-.931.325-1.26a3.43 3.43 0 0 0-.975-.329c1.137-2.793 2.437-5.533 3.952-8.107a15.823 15.823 0 0 0 5.306 2.3c5.414 1.151 10.287-1.369 13.806-5.314 1.3 3.452 11.857 2.301 8.663-3.122 3.519-.274 4.223-4.657 2.382-7.889 3.898-2.739.108-9.258-2.382-11.888-1.57-1.698-3.519-2.684-5.793-2.575-.325 0-2.978-2.465-3.682-2.794-1.029-.438-2.111-.328-3.194-.109-.921-2.685-2.924-3.835-5.902-3.068-.433.109-1.678.712-2.274 1.369-.27-3.56-4.71-3.78-7.2-1.917-3.086-4.109-7.959.164-8.446 4.547-6.551-2.082-9.962 7.615-3.357 10.025-2.382 2.301-5.36 6.3-3.086 8.93 2.599 3.013 5.09.219 6.876-2.684.325 5.259 3.194 10.463 7.417 13.641-1.895 2.684-3.357 5.533-4.656 8.491-1.191 0-2.436.164-3.41.219-2.87.274-5.74.712-8.61.822-.053 0-.162 0-.216.055-.216-.493-.541-.932-.866-1.315-.758-.822-1.787-1.37-2.924-1.315a2.55 2.55 0 0 0-1.462.658c-1.516-.22-2.436 1.972-2.273 3.615.324 3.287 4.06 4.273 6.605 2.849 1.245-.712 1.516-2.082 1.3-3.342 2.11.055 4.276-.219 6.388-.438 1.624-.164 3.194-.164 4.818-.164-1.462 3.725-2.653 7.56-3.844 11.395-2.653 8.327-6.172 16.27-9.204 24.433-.108.329-.054.822.271 1.041 2.978 1.972 6.226 3.944 9.691 5.368v.055c-.487 1.589-.812 3.287-1.082 4.931 0 .109-.055.164-.055.274-2.057-1.644-5.305-2.466-6.822.164-2.328 3.944 3.79 6.081 6.443 6.464.38.055.704-.164.867-.493.487-1.205.433-2.684.541-4.054.27-.274.325-.657.108-.986.217-2.027.542-3.999.867-6.026 1.949.712 3.898 1.26 5.955 1.534.054.11.108.164.162.274.325.603.271 1.424.217 2.137-.108 1.533-.487 3.067-.596 4.601v.493h-.054c-.487.22-.541.932 0 1.151.055 0 .109.055.163.055.325 2.136 1.624 3.834 4.115 4.273 2.382.383 6.226-1.26 5.197-4.219-.541-1.534-2.436-2.355-3.898-2.41-1.083 0-2.545.164-3.844.548.162-1.863.433-5.04-.054-6.793.595.054 1.137.054 1.732.054 5.36-.109 11.478-1.205 11.099-7.724-.162-3.287-1.732-6.629-2.328-9.806-.974-5.04-.65-10.628-.812-15.723-.054-2.739-.162-5.478-.162-8.272 1.407.657 2.977 1.095 4.277 1.753 2.22 1.096 4.439 2.356 6.713 3.396-.054.055-.054.11-.108.165a.594.594 0 0 0 .054.602c-.704 1.041-1.029 2.356-.704 3.726.758 3.232 4.277 4.108 6.93 2.52 2.437-1.425 2.653-4.493.596-6.629zm-45.37-5.752c-.596.712-1.895.767-2.707.657-.92-.11-1.625-.767-1.95-1.589-.162-.383-.162-.986-.108-1.534.217.22.542.274.758.055.38-.383.704-.931 1.083-1.315.162 0 .325-.109.325-.219.108-.055.162-.055.27-.109.596-.11 1.138.219 1.57.602.975.767 1.625 2.411.759 3.452zm33.784-41.8c2.219-.822 4.169 0 5.955 2.465.163.274.433.603.812.493 4.44-1.095 12.344 9.368 7.255 11.669a.83.83 0 0 0-.325 1.26c1.787 2.356 1.949 6.958-2.274 5.862-.649-.164-1.245.822-.758 1.315 5.198 5.588-9.312 5.807-2.598-.055.433-.383.433-1.26-.217-1.424 3.952-7.889 3.411-17.367-5.197-18.572-.434-1.479-1.462-2.41-2.87-2.958.054-.055.163 0 .217-.055zm-18.679 4.328c-2.22 2.191-3.465 4.711-4.007 7.396-.216.438-.379.876-.595 1.26-.27.602-.541 1.205-.866 1.808-.812 2.3-2.383 2.3-4.602.054.65-2.027 2.49-4.108 4.114-5.423.542-.438.325-1.315-.379-1.425-6.55-1.04-3.735-9.806 2.112-6.902.541.274 1.191-.274 1.083-.822-.217-2.082 3.032-9.258 6.064-3.944.27.438.974.383 1.245 0 2.707-3.233 4.873-.822 5.468 1.26.162.547.92.493 1.137.109.054.055.162.11.217.165.108.054.27 0 .27-.165-.216-2.136 6.01-.657 6.497 1.589.054.219.217.438.433.602-5.305-1.753-15.538 1.863-18.191 4.438zm7.417-1.972c3.303-1.151 9.529-2.466 12.128.548-.704.328-.758 1.588.162 1.588.271 0 .488.055.758.055.054.11.109.219.109.384.108.493.92.602.92 0v-.165c5.089 1.205 6.335 6.465 5.36 11.669a19.448 19.448 0 0 1-1.624 4.821c-2.599-1.041-3.357-4.985-1.354-7.122.596-.657-.216-1.534-.92-1.26-2.816 1.205-4.169-.164-4.115-4.109.542-.876-.595-1.862-1.245-1.04-.975 1.26-7.634 5.423-7.363 0 .054-.877-1.137-1.206-1.516-.603a.163.163 0 0 0-.217 0c-.379.164-.325.548-.433.931-.108.274-.27.548-.487.767-.488.384-1.137.493-1.733.493-.487 0-.92-.109-1.353-.328 0-.055.054-.055.108-.165.217-.329.108-.876-.325-.876-.541-.055-.974.219-1.245.602a6.772 6.772 0 0 1-.163-.548c-.108-.273-.541-.219-.541.055-.054 1.534-1.787 5.095-4.06 3.013 1.082-4.875 4.601-7.176 9.15-8.71zm-9.42 10.189c2.22.932 4.927-.328 5.143-2.629.542.657 1.57.876 2.328.876 1.083.055 2.112-.219 2.87-.986.162-.164.325-.383.433-.602.812 3.451 4.873 3.232 7.904 1.479-.054 2.465 2.058 4.163 4.765 4.109-1.949 3.341-.866 6.957 2.924 8.053-2.166 3.506-5.469 6.3-9.421 7.341-10.666 2.739-18.192-7.834-16.946-17.641zm-5.252 79.162c-1.949-.383-5.739-1.534-4.656-3.835 1.029-2.191 3.952-.109 5.197.932-.108.986-.27 1.972-.541 2.903zm11.965.11c.92-.219 1.95-.439 2.87-.165.758.219 1.949 1.26 1.407 2.137-.758 1.15-2.598 1.205-3.79 1.041-1.353-.219-2.057-1.26-2.382-2.52.65-.165 1.3-.384 1.895-.493zm-5.739-34.733c.758.219 1.516.384 2.274.548 1.624.383 3.357.767 5.09.877.379 2.3 1.136 4.108.866 6.683-.38 3.342-2.382 6.464-6.064 5.971-4.494-.602-6.984-12.819-2.166-14.079zm12.074.931c.108 3.781.216 7.561 1.191 11.176.65 2.301 1.353 4.602 1.732 7.013.704 4.711-4.872 5.478-8.175 5.752-5.252.438-10.45-1.753-14.997-4.164-3.952-2.082-4.223-2.739-2.653-6.738 1.083-2.739 2.166-5.424 3.249-8.163.866-2.191 1.678-4.492 2.436-6.738.595.109 1.3.109 1.895.219.541.11 1.083.219 1.57.329-1.733.931-2.166 3.889-2.22 5.752-.108 3.725 1.245 8.163 4.656 10.025 3.411 1.863 6.876-.822 8.284-3.835 1.083-2.355 1.84-7.395.216-10.08.975-.109 1.895-.219 2.816-.548zm18.029-5.314c-1.679 1.37-4.169 1.151-4.981-.986-.758-1.972.379-3.451 1.949-4.218.108 0 .216-.055.325-.055.108 0 .27 0 .379.055 0 .329-.054.603-.054.986 0 .329.487.329.541 0 .054-.329.108-.548.162-.822.488.165.975.439 1.354.767 1.462 1.096 1.841 3.068.325 4.273zM177.516 358.581c-.704.822-.974 2.027-1.245 3.068-.379 1.315-.704 2.684-1.029 3.999-.108.548.65.712.812.219.379-1.15.758-2.355 1.137-3.506.379-1.095 1.029-2.136 1.246-3.287.054-.493-.542-.986-.921-.493zM155.481 353.706c-.217-.22-.65-.22-.813.109-.487.986 0 2.739.055 3.78.108 1.753.054 3.506.162 5.259.054.658 1.029.658 1.029 0 .108-1.753.108-3.506.054-5.259.054-1.041.379-3.122-.487-3.889zM173.726 389.534c-.216-.603-1.137-.712-1.299 0-1.245 5.095-8.067 3.999-12.019 3.068-2.545-.603-5.035-1.699-7.039-3.397-2.274-1.862-2.22-3.835-2.598-6.409-.055-.439-.65-.384-.813-.11-3.844 6.081 6.822 10.792 10.829 11.724 2.869.712 15.159 1.479 12.939-4.876zM159.649 375.728c-.757 1.808-1.299 3.835-1.894 5.698-.217.767.92 1.041 1.191.328.649-1.807 1.57-3.615 2.057-5.478.162-.767-1.029-1.315-1.354-.548zM166.58 377.098c-.163-.329-.542-.383-.867-.219-.595.329-.649 1.26-.812 1.863-.325 1.26-.704 2.574-.758 3.889-.054.712 1.029.822 1.246.164.324-1.205.595-2.465.974-3.67.163-.657.542-1.37.217-2.027z" fill="#A8A8A8"/><path d="M185.692 370.086c.487-.493-.163-1.425-.758-.986-1.462.986-2.87 2.465-4.007 4.054a17.396 17.396 0 0 0-1.949-2.959c-.162-.164-.325-.328-.487-.548.812-.766 1.516-1.588 2.274-2.41.649-.767 1.84-1.643 2.111-2.63.108-.383-.271-.821-.704-.712-.92.274-1.516 1.425-2.111 2.192-.758.986-1.462 1.917-2.274 2.848-2.382-2.465-5.306-4.547-8.446-5.642.433-.986.758-1.973 1.083-3.013.433-1.26 1.082-2.575 1.191-3.89.054-.548-.758-.712-1.029-.274-.595.986-.758 2.301-1.083 3.451-.325 1.151-.704 2.301-1.028 3.507a15.327 15.327 0 0 0-5.252-.603c.054-1.205.108-2.411.216-3.616.055-.767.217-1.534.379-2.246.109-.493.379-.931.379-1.424 0-.384-.433-.712-.812-.439-.866.603-.974 1.918-1.083 2.904a31.294 31.294 0 0 0-.108 5.04c-.65.11-1.299.219-1.949.438-.433.165-.595.493-.595.877-9.908 1.041-15.593 11.45-15.431 21.53-1.191.493-2.544.931-3.681.328-.812-.438-1.3-1.314-1.354-2.191-.054-.822.163-1.753.812-2.246 1.083-.822 2.437-.164 3.519.329.758.383 1.354-.658.65-1.151-1.408-.986-3.302-1.589-4.873-.657-1.245.712-1.786 2.246-1.786 3.615.054 1.48.812 2.904 2.057 3.671 1.408.822 3.194.657 4.71.055.379 4.821 2.166 9.422 5.523 12.655-2.003-.548-5.252 7.56-6.226 10.025-2.058.383-4.061.822-6.064 1.205-1.3.274-3.411.219-4.819.712-.325-.876-.812-1.643-1.57-2.191-1.029-.767-2.382-.767-3.573-.329-.163-.164-.379-.219-.596-.109-1.895.986-3.735 3.013-2.599 5.259.867 1.753 3.141 2.52 4.981 2.575 2.004 0 3.628-1.315 3.628-3.397v-.438c1.191.109 2.599-.329 3.573-.438 2.112-.274 4.277-.713 6.389-1.096-2.87 7.286-5.522 15.997-3.249 23.666.704 2.301 1.95 4.109 3.574 5.369-1.245 3.397-1.3 7.122-2.437 10.573-2.003-1.862-4.981-3.013-7.417-1.589-3.79 2.192-1.029 6.027 2.112 7.067 3.14 1.041 5.035-.493 6.226-3.067.379-.11.65-.493.379-.877 1.353-3.616 1.624-8.601 2.111-11.395 2.328 1.425 5.144 1.863 7.851 1.37.433 4.602 2.165 9.97 4.927 13.476 2.328 2.959 7.092 3.89 10.178 1.425 3.14-2.465 2.058-7.177-1.895-7.779-1.841-.274-3.735.438-5.035 1.698-.758.712-1.787 2.356-2.166 3.725-2.815-3.068-4.168-9.094-4.818-12.819a13.166 13.166 0 0 0 4.818-2.52c7.093-5.972 7.039-15.12 5.469-23.886 2.869 1.973 5.847 3.78 8.716 5.643l.109.11c-.542.876-.704 2.027-.65 3.067.217 3.014 2.653 4.986 5.577 3.835 3.519-1.424 5.035-5.149 2.544-8.272-1.949-2.41-6.334-2.958-7.634.274-2.598-2.739-5.847-4.821-8.987-6.848 0-.164-.108-.329-.271-.438-.65-3.178-1.462-6.245-2.057-9.039 4.71-.055 9.475-2.082 13.264-5.205 1.733 3.232 5.848 3.78 8.501 1.041 1.082-1.15 1.732-2.849 1.299-4.383-.271-.876-.866-1.479-1.57-2.027-.704-.547-1.949-1.205-2.815-.876a23.19 23.19 0 0 0 1.407-2.849c1.841-4.876 2.382-10.683.379-15.558.487-.603.975-1.205 1.57-1.753.921-1.206 1.949-1.918 2.762-2.794zm-54.196 43.771c-.162 1.315-1.516 1.589-2.599 1.48-1.191-.11-2.544-.658-3.194-1.753-.541-.877-.054-1.808.596-2.575.162.109.433.164.649 0 1.083-.603 2.653-.877 3.682 0 .704.657 1.029 1.972.866 2.848zm8.717 39.116c-.487 1.041-1.137 1.917-2.274 2.246-1.57.438-4.927-1.37-4.71-3.232.216-1.754 3.411-1.48 4.385-1.096.65.274 1.191.712 1.787 1.096.325.219.595.438.92.657-.054.11-.108.219-.108.329zm19.328 3.122c.271-.712.596-1.424.921-2.081.866-1.754 2.111-2.575 4.006-2.74 2.707-.219 3.844 2.685 2.003 4.657-1.082 1.15-3.14 1.26-4.602 1.15-.92-.054-1.678-.328-2.436-.821.108 0 .108-.055.108-.165zm14.077-33.801c.487-.876 1.245-.876 2.111-1.15.271-.055.271-.384.055-.548a1.673 1.673 0 0 0-1.354-.274 2.466 2.466 0 0 1 1.462-.493c1.083 0 2.057.657 2.761 1.424 2.058 2.192.487 4.876-1.949 5.917-1.895.767-3.248-.548-3.519-2.411-.054-.876.054-1.753.433-2.465zm-12.344-9.423c-.487.274-.433 1.096 0 1.425.108.055.216.164.325.219 1.461 7.45 1.949 14.901-2.545 21.584-1.57 2.411-3.79 4-6.172 4.712-.271-.165-.65-.055-.812.219-2.707.493-5.631-.164-8.121-2.246-2.491-2.082-3.141-5.643-3.303-8.711-.325-6.519 2.003-13.257 4.385-19.229 1.029-2.574 2.22-5.04 3.52-7.505.216-.383 1.245-2.849 1.57-3.013.108-.055.108-.164.108-.219a19.749 19.749 0 0 0 2.653 1.972 14.355 14.355 0 0 0 6.334 2.027c.65 2.849 1.408 5.807 2.058 8.765zm20.086-18.078c.487.274.921.767 1.137 1.315.379 1.041-.162 2.136-.812 2.848-.812.932-1.949 1.48-3.14 1.48-1.516 0-2.599-.986-3.465-2.137 1.624-1.424 3.032-3.123 4.169-4.876 0 .055 0 .11.054.165.433.712 1.408.767 2.057 1.205zm-4.277-1.205c-5.414 8.272-18.841 12.216-26.367 4.656-3.194-3.177-4.71-7.45-4.927-11.833.325-.329.271-.767-.054-1.041 0-10.025 6.876-20.434 17.38-20.27.595 0 .703-.602.487-.986 6.172-.438 12.182 4.054 15.43 9.094 3.952 6.191 1.787 14.682-1.949 20.38zM64.139 443.382c-.037-2.351-2.133-4.08-4.24-2.942-1.729.951-3.014 3.061-3.6 5.07-2.743-3.1-4.61-6.701-6.577-10.347 2.905-2.273 4.507-5.915 3.884-9.909-.4-2.336-1.406-4.648-2.742-6.751 2.506.12 5.494-1.396 7.41-2.502 1.276-.738 3.2-2.677 3.457-4.476 1.994.067 3.87-1.356 3.547-3.598-.184-1.34-1.172-2.746-2.396-3.481.022-.05-.006-.123-.105-.168-.976-.622-1.852-.66-2.59-.337l-.643.246c-.166.105-.231.255-.27.477-1.5 1.653-1.754 5.069.638 6.394.078.634.107 1.246-.415 2.027-.775 1.084-2.074 1.871-3.257 2.531a24.064 24.064 0 0 1-5.873 2.123c-1.85-2.695-4.272-5.171-6.6-7.185 3.508-.802 6.777-2.551 9.142-4.949.137-.177.252-.304.44-.459 2.077.824 4.29-.147 5.058-2.432.75-2.113-.366-4.715-2.498-5.144-.032-5.88-3.792-12.076-9.434-13.32a.78.78 0 0 0-.579.097c-.226-.163-.474-.275-.672-.365.758-.913 1.467-1.848 2.177-2.783.34-.504.846-1.112.647-1.741-.194-.507-.712-.683-1.163-.468-.308.159-.434.581-.252.843l-.198.449c-.263.598-.698 1.179-1.06 1.733-.363.554-.775 1.085-1.16 1.688a15.766 15.766 0 0 0-3.767-.094c.361-1.092.624-2.23.914-3.295.214-.622.643-1.325.344-1.999-.16-.312-.53-.42-.788-.238-.589.391-.62 1.275-.713 1.891-.284 1.187-.613 2.475-.556 3.698-1.933.2-3.854.644-5.484 1.102-.193.032-.407.114-.622.196-.04-.856-.56-2.109-.698-2.471-.492-1.181-1.006-2.312-1.449-3.471-.166-.434-.282-.846-.448-1.281.407-.114.6-.685.197-.988-.557-.492-1.34-.608-1.69.191-.352.798.283 1.924.56 2.648.52 1.254 1.133 2.43 1.674 3.633.244.53.46.987.653 1.493.083.218.166.435.27.602-7.282 2.62-9.567 10.381-6.549 17.318-.071.027-.12.005-.192.032-.672.174-1.31.543-1.745 1.124-.874 1.039-.899 2.584-.5 3.842.37 1.186 1.391 2.248 2.636 2.394.783.116 1.498-.158 2.137-.526.544-.292 1.199-.833 1.683-1.391 1.715 1.377 3.77 2.25 5.903 2.679-.687.885-1.291 1.988-1.818 3.185-4.29.148-15.738 6.144-12.937 11.007-.93.895-1.318 2.454-.908 3.957.82 3.006 4.094 4.492 6.857 3.352 2.548-1.058 2.974-3.918 1.703-6.17-.58-.982-1.54-1.776-2.669-2.05a3.735 3.735 0 0 0-2.132.11c-.49-.103-.925-.061-1.36-.019-.69-4.383 6.862-7.479 10.881-8.767-2.033 6.379-1.524 15.229 2.543 19.648-2.049 3.979-3.501 8.227-4.954 12.476-2.322-1.892-6.33-.898-6.308 2.703-.025 5.196 7.05 3.32 8.56.294.4-.776-.718-1.343-1.274-.758-.44.459-.88.918-1.37 1.354-3.035 2.572-2.449-6.199-.073-1.59.293.552 1.3.83 1.531.037.69-2.38 1.452-4.788 2.264-7.173.597-1.763 2.371-4.849 2.59-6.426 1.89 1.517 4.304 2.254 7.432 1.638 1.42-.253 2.73-.795 3.914-1.455l-.098 1.033c-.044.1.105.167.15.067l.504-1.147c1.588 4.372 4.095 8.682 7.378 11.908.05.022.077.094.127.117.441.619 2.038.506 2.589.337 2.488-.786 5.07-2.188 5.032-5.078zm-2.725-33.437a2.645 2.645 0 0 0-.965-.917c-.226-.163-.463-.031-.6.146-.872-.994-.66-2.693.214-3.733.683.071 1.29.046 2.033.384.722.388 1.192 1.079 1.468 1.804.636 1.665-.783 2.457-2.15 2.316zm-38.503 15.682c.132.24.408.425.65.415-.07.566-.12 1.083-.262 1.677.192-.572.406-1.193.598-1.764.55-.169 1.046-.483 1.707-.363.683.071 1.29.586 1.704 1.133.982 1.284.891 2.978-.523 3.893-1.838 1.2-4.103-.007-4.944-1.885-.326-.747-.415-1.625-.064-2.424.066-.149.181-.276.247-.426a.698.698 0 0 0 .887-.256zm33.833-25.763c.442.62.41 1.503.273 2.219-.333 1.704-1.67 2.175-3.015 1.984.95-1.484 1.526-3.198 1.76-4.947.37.107.695.315.982.744zm-28.954 8.047c-.352.259-.853.45-1.216.465-.755-.043-1.268-.635-1.572-1.432-.305-.796-.3-1.752.178-2.433.296-.404.67-.713 1.1-.877l.214-.082c.266.479.53.959.846 1.461.469.691.91 1.311 1.495 1.876-.374.309-.67.713-1.045 1.022zm.908-3.958c-.232-.284-.441-.619-.651-.954.022-.05.044-.099-.056-.144l-.05-.023c-3.732-6.124-1.107-14.389 5.82-16.333.6-.146 6.326-1.258 9.614-1.561-.105.372.37.647.623.342.115-.127.18-.276.296-.404.485-.019.898-.011 1.119.029-.005.417.16.851.7.977 7.973 1.763 9.853 12.911 5.356 18.531-2.27 2.86-5.694 4.419-9.295 4.759a.68.68 0 0 0-.87.084c-4.748.239-9.763-1.618-12.606-5.303zm16.382 31.616c-3.1 1.227-5.525.246-7.29-1.692-.056-.145-.16-.312-.31-.38-1.594-1.921-2.667-4.622-3.144-7.054-1.044-5.202-.161-11.265 2.988-15.582 1.366.141 2.798.133 4.246-.048 7.407 6.295 16.98 19.438 3.51 24.756zm14.42 10.915a6.87 6.87 0 0 1-1.729.412c.57-1.836 3.046-7.056 4.383-4.414 1.072 2.162-1.058 3.35-2.654 4.002z" fill="#A8A8A8"/><path d="M35.899 383.746c.559-2.083.302-4.476.276-6.584.01-.294-.364-.524-.651-.415-.832.401-.588 1.47-.526 2.277.168 1.514.314 3.078.167 4.628-.076.445.586.565.734.094zM50.534 398.152c-.034-.732-1.03-.766-1.292-.168-1.886 3.745-5.39 6.577-9.808 5.947-2.465-.342-4.37-2.223-5.814-4.073-.568-.736-1.015-1.476-1.489-2.289-.629-1.003-1.003-1.232.395-.359-.065.15-.032.344.144.484.43.374.979-.333.527-.657-.176-.14-.418-.13-.555.047-.55-.37-1.476-.969-1.575-1.014-.127-.117-.363.015-.308.159.701 5.159 5.256 9.258 10.311 9.52 3.57.126 9.702-3.545 9.464-7.597z" fill="#A8A8A8"/><path d="M38.78 395.193c-.05-.022-.391-.058-.292-.013l-.05-.022.023-.05a.423.423 0 0 1 .01-.295 3.642 3.642 0 0 1 .043-.639c.049-.516.608-2.059.1-2.529-.16-.312-.517-.175-.699.102l-.022.05c-.181.277-.285.649-.346.921a11.062 11.062 0 0 0-.449 1.832c-.07.566-.042 1.178.295 1.63.492.643 1.384.509 1.868-.05.181-.277-.09-.879-.48-.937zM42.87 394.525l-.02-1.986-.034-.734c-.006-.122-.011-.245-.089-.339l-.05-.023-.055-.145c-.154-.19-.425-.253-.612-.098a.406.406 0 0 0-.137.177c-.022.05-.16.227-.16.227-.044.1-.06.272-.104.372-.093.617-.114 1.206-.135 1.796a56.161 56.161 0 0 1-.085 1.817c0 .54-.136 1.256.46 1.527 1.412.581 1.028-1.929 1.02-2.591zM1673.07 73.446c-3.89-4.475-10.45.271-13.4 4.407-2.75-4.407-7.64-10.644-12.87-8-5.02 2.508-1.94 7.39 1.55 10.712-3.76-.882-8.11-1.356-9.65 1.423-2.48 4.475 2.14 7.255 6.16 7.933-4.22 4.813-5.56 12.745 1.14 16.068 5.56 2.711 9.65-2.645 11.79-8 6.84 7.728 19.7-10.78 8.51-13.967 4.63-2.373 10.05-6.78 6.77-10.576zm-3.35 5.83c-.94.882-1.94 1.628-3.02 2.306-1.47 1.017-3.14 1.695-4.95 2.034-1.14.203-.87 2.101.26 2.033 14.34-.406 2.08 17.967-3.28 9.831.4-1.288.67-2.508.81-3.458.13-.881-1.14-1.288-1.34-.406-.14.61-.27 1.22-.47 1.83-.07-.271-.2-.474-.27-.746-.4-1.288-2.41-.746-2.01.543.4 1.22.8 2.305 1.27 3.118-1.07 2.848-2.68 5.424-5.16 7.187-3.95 2.847-8.04-1.288-8.17-5.22-.14-3.187 2.01-6.577 4.42-8.475.74-.542.6-2.034-.54-1.966-1.87.135-3.48-.204-5.22-1.017.27-1.56.53-3.187.8-4.746.74-.068 1.48 0 2.21.068 2.68.135 5.36 1.085 7.91 1.763 1.07.27 1.81-1.289.74-1.831-1.41-.678-2.55-1.492-3.76-2.508-1-.882-1.94-1.831-2.68-2.984 1.61-4.949 3.55-6.101 5.9-3.39 2.28 1.899 4.09 4.475 5.56 7.051.4.61 1.41.678 1.74 0 1.54-2.915 4.56-5.288 7.64-6.44 3.49 1.898 3.95 3.66 1.61 5.424zM1691.68 485.506c-3.02-.474-4.82 2.441-4.49 5.221-1-1.356-1.81-2.916-2.61-4.339-.47-.882-1.14-2.441-2.08-3.187.34-.203.67-.339 1.01-.542 7.7-4.678 8.97-13.899 2.68-20.068-.61-.543-1.21-1.085-1.88-1.627 3.22-1.763 5.43-7.797 6.63-10.78 1.41-3.458 3.69-9.559-.06-12.475-3.76-2.847-6.7 2.509-7.98 5.424-2.21 5.085-1.94 10.576-1.34 16-5.76-3.322-13.26-4.678-19.5-3.458.27-1.084.47-2.237.61-3.389h.4c.07.271.27.406.6.406.34-.067.61-.067.94-.135.47-.204.94-.814.54-1.356-.47-.61-1.41-.814-2.42-.814 0-1.356-.13-2.779-.33-4.203h.07c.47 0 2.94-.136 2.41-.407.74.339 1.47-.542.87-1.152-.67-.814-2.41-.407-3.28-.339-.14 0-.27 0-.41.067-.4-2.034-1-4.067-1.8-5.898-.88-2.102-2.75-5.83-5.16-8.881.26-.407.2-1.017-.27-1.221.33.136.33.407.27-.203l-.21-1.424c-.13-1.085-.2-2.169-.33-3.186-.2-1.899-.34-4-1.21-5.763-.2-.475-.87-.61-1.34-.339-2.88 1.763-5.76 4.407-6.76 7.797-.14.067-.27.135-.41.203-.2.136-.33.339-.4.542-4.89-1.152-9.44.407-13 3.458 0-.136-.06-.271-.2-.407-1.2-1.152-2.95-1.695-4.42-2.44a21.342 21.342 0 0 0-4.96-1.628c-.67-.135-1.34.407-1.14 1.153.47 1.831 1.14 3.525 1.95 5.22.47.95.93 1.831 1.47 2.712.13.271.54.746.94 1.221-.14.067-.14.271-.07.406.34.407.47.95.87 1.221-1.81 4-2.54 8.542-1.81 12.813.07.407.14.814.27 1.221-2.48.339-4.96.745-7.44.813-1.2.068-1.2 1.899 0 1.899 1.21-.068 2.35-.068 3.56.067.4.068.6-.271.53-.61 1.27-.203 2.48-.407 3.75-.61.2.746.54 1.424.81 2.102-1.74.61-3.42 1.356-4.96 1.966-1.07.407-.67 2.237.47 1.83 1.87-.542 3.68-1.22 5.43-1.898 3.15 5.492 8.51 9.153 14.4 10.237.07 4.882 3.62 8.95 7.71 11.865-.27 3.186-.81 6.305-1.68 9.356-2.48-1.627-6.3-2.576-7.9.61-2.22 4.407 5.15 4.949 7.5 4.746.47-.068.8-.271.94-.746 1.54-4 2.48-8.678 2.48-13.085a40.543 40.543 0 0 0 5.29 2.848c.94.406 1.94.813 2.95 1.152-.67 1.153-.67 3.119-.74 4.339-.13 1.492-.13 3.051-.2 4.61-2.88-1.084-6.83-.406-9.18 1.085-.47.271-.6.882-.33 1.356 2.07 3.593 6.03 4.882 9.91 4.475.4-.068.81-.271.87-.678.2-1.356.27-2.644.34-4 .4-.271.47-.882.07-1.288 0-1.56 0-3.187.06-4.746.07-1.492.07-3.051.4-4.475 0-.068 0-.068.07-.135a37.625 37.625 0 0 0 9.92 1.762c.06 3.119-.07 6.983.87 10.17 0 .271.07.61.27.881.26.678.53 1.356.87 1.899 1.2 1.966 4.02 1.694 5.83.949 2.27-.882 4.22-3.051 4.69-5.492.13-.542-.14-1.017-.67-1.22-2.75-.882-6.1-.475-8.78.542-.34.136-.6.271-.87.475-.54-2.712-.54-5.492-1.01-8.204 3.69 0 7.31-.678 10.59-2.101.13.678.6 1.288.94 1.83.74 1.221 1.41 2.509 2.08 3.797 1.13 2.034 2.54 4.339 4.69 5.356 2.74 1.288 7.9-.61 7.9-4.136 0-2.508-2.81-4.678-5.09-5.017zm-45.83 6.034c-1.81.068-5.96 0-4.96-2.034 1.07-2.102 4.22-.339 5.5.543-.21.474-.34.949-.54 1.491zm10.99 6.034c-2.68 0-5.23-.61-6.9-2.712 2.41-1.085 4.69-.678 7.23-.203-.06.949-.2 1.898-.33 2.915zm22.91-2.712c-.73 1.763-2.41 3.051-4.22 3.526-2.01.542-2.88-.746-3.35-2.238.14-1.22 5.29-1.423 7.57-1.288zm3.42-46.78c.34-2.305 5.09-13.288 7.44-7.322 1.34 3.254-1.41 8.475-2.75 11.254-1.41 2.848-3.35 5.153-5.02 7.797.13-4-.34-7.797.33-11.729zm-22.78-1.762c.2 1.355.33 2.711.27 4.135-.67.068-1.34.068-1.74 0-.27-.068-.54-.068-.81-.135a5.904 5.904 0 0 0-.87-3.729c1.07-.068 2.14-.204 3.15-.271zm-8.38-26.645c.67 2.238.61 4.814.87 7.051 0 .136 0 .271.07.475-1.87-1.695-3.88-2.78-5.96-2.509 1.27-2.101 2.88-3.661 5.02-5.017zm-26.53 13.56c-1-1.966-1.94-4-2.55-6.102 1.21.339 2.42.814 3.56 1.356 1.34.61 2.61 1.491 4.02 1.695a20.275 20.275 0 0 0-3.82 5.085c-.41-.746-.94-1.492-1.21-2.034zm.87 17.424c-1.27-4.678-.8-9.763 1.54-14.102 3.55-6.644 12.06-11.255 19.3-8.475.6.204 1-.746.4-1.017-.2-.068-.33-.135-.53-.203 4.35-.61 8.97 7.796 10.45 10.644 1.14 2.169 2.01 4.61 2.61 7.186-1.34.136-2.61.339-3.95.543-3.35-3.526-10.05-4.61-12.87 1.085-.6-.204-1.27.203-1.34.949v.339c-.67-2.373-3.61-2.577-6.16-1.831-2.48.678-4.02 2.373-4.62 4.475-1.61-.068-3.22.135-4.83.407zm20.57.339c.4 0 .81.067 1.21.067.06 0 .13 0 .2-.067.94.135 1.94.338 2.54.406l4.63.407c-.27.61-.67 1.288-1.28 1.898-1.8 1.899-5.02 1.424-7.03.407-.87-.407-1.47-1.017-1.94-1.695.13-1.627-.14-3.254-.74-4.678.27-.068.47-.203.6-.542 1.88-3.865 5.83-3.661 8.38-1.695-2.35.407-6.57 1.356-5.83 2.508.13.204.4 0 .27-.135.13.339 4.28-.407 6.96-.882.68.95 1.08 1.967 1.01 3.119-1.21-.068-2.48-.135-3.69-.203-1.54-.068-4.15-.678-5.62-.068-.81.271-.47 1.288.33 1.153zm-9.45 2.305c-1.6-.475-3.21-.543-4.89-.339-.06-.611-.06-1.153.07-1.695.8-.136 1.68-.271 2.48-.407.6-.068.4-1.017-.13-1.017-.61 0-1.21 0-1.81.068 2.01-3.322 7.77-4.543 8.3-.678.07.271.34.271.47.068.14 1.017.47 1.966.87 2.779-.6 4.678-5.22 8.746-9.11 3.526-.27-.407-.53-.746-.73-1.153 1.4-.339 2.81-.542 4.35-.678.4 0 .47-.407.13-.474zm-10.65-1.085c1.34-.204 2.68-.475 4.02-.678-.07.542 0 1.085 0 1.627-1.07.203-2.21.475-3.28.814-.2-.543-.47-1.153-.74-1.763zm14.88 12.474a.31.31 0 0 0-.61 0v.068c-4.89-1.356-9.51-4.542-12.26-8.746-.07-.067-.07-.135-.13-.203.87-.271 1.74-.61 2.61-.813.07.203.07.339.13.542 1.55 4.407 6.57 5.559 10.32 3.322 1.54-.881 2.48-2.441 3.02-4.203 3.28 3.118 8.64 3.728 11.99-.746.4-.61.74-1.153 1.01-1.763.26.068.53.068.73.068.61.068 1.34.068 2.08 0a13.106 13.106 0 0 1-1 3.932c-.54.271-.67.814-.61 1.288-.4.746-.87 1.492-1.4 2.238-4.09 5.288-10.19 6.576-15.88 5.288.06-.068 0-.204 0-.272zm.6 2.306c4.15.474 8.51-.204 12.53-2.373 3.01-1.627 5.02-3.933 6.23-6.644 7.03-1.899 14.94.339 21.04 4.135 8.71 5.424 7.1 15.187-1.61 19.661-12.46 6.441-33.5-1.152-38.19-14.779zm50.38 25.83c-1.67.61-2.88.407-4.02-.474.14-.068.27-.272.27-.475.27-1.763-.13-5.017 2.62-4.407 1.4.271 3.55 1.831 3.35 3.526-.14 1.017-1.34 1.491-2.22 1.83z" fill="#A8A8A8"/><path d="M1644.04 437.913c-.07-.814.13-2.102-1-2.102-.34 0-.67.203-.81.474-.2.339-.13.678 0 .95-.27-.475 0 .067 0 .067 0 .068.07.136.07.204.07.339.13.61.2.949.07.339.13.678.13 1.017 0 .136.07.271.07.407v.068c.07.881 1.34.949 1.41 0 0-.678-.07-1.356-.07-2.034zM1637.34 434.997c-.87.136-.8 1.288-.67 1.899.07.135.13.271.2.339v.203c.07.949.07 1.898.2 2.847.07.882 1.34.882 1.41 0 .13-1.288.07-2.576.13-3.864 0-.746-.26-1.559-1.27-1.424zM429.199 171.041c3.283-3.796 5.227-8.813-.067-11.457-7.102-3.661-11.323 3.932-12.328 10.305-2.345-4-6.298-8.204-9.649-3.255-3.015 4.475-.938 8.814 2.748 11.255-3.284.813-6.098 2.779-3.351 6.644 2.413 3.254 5.897 3.051 8.778 1.356-.067 4.339 3.35 11.593 6.365 12.135 7.37 1.221 9.045-6.169 6.968-11.864 4.824 1.83 10.185.339 10.721-6.102.536-6.237-4.958-9.356-10.185-9.017zm-2.479 11.526c-1.072-.882-2.412.474-1.474 1.491 2.479 2.916 4.221 15.051-3.551 11.594-1.407-.611-5.762-10.509-3.752-10.916.804-.135.871-.881.603-1.424.134-.135.268-.338.402-.474.402-.475-.469-1.085-.871-.678l-.603.61h-.067c-.804.136-1.34.61-1.675 1.356-1.809 1.085-3.819 1.424-6.03.339-1.072-.542-1.944-1.559-2.078-2.78-.335-2.644 5.227-2.169 6.5-2.169 1.206.068 1.407-1.831.268-2.102-4.087-.949-7.438-3.593-6.231-8.203 1.943-7.39 7.638 2.779 8.509 5.084.402 1.085 2.211 1.017 2.077-.271-.402-4.406.469-9.423 4.221-12.203 3.082-1.831 5.561-.746 7.37 3.254-.268 1.017-.67 1.966-1.273 2.848-.938 1.627-2.412 3.118-4.02 4.203-.603.339-1.206.678-1.742 1.153-.938.813.268 2.237 1.273 1.694a20.632 20.632 0 0 0 1.742-1.22c3.819-1.966 8.912-.542 10.721 3.729 3.082 7.661-6.232 8.475-10.319 5.085zM230.102 408.11c-2.728-2.329-8.524-2.674-9.079 1.812-1.193-2.502-3.282-4.356-5.839-5.995-.469-.302-6.095-3.58-6.393-1.682-1.364-.776-2.856-.776-4.305-.216 1.449-4.96-1.833-8.971-7.119-9.014-2.088 0-4.518.733-5.796 2.545-1.535 2.199-.725 4.787.596 6.857a.673.673 0 0 0 1.151 0 7.51 7.51 0 0 1 1.918-2.242c-.255.992-.341 1.984-.085 3.105.128.517.725.604 1.066.302 1.619-1.38 4.091-3.192 5.285-.388a.481.481 0 0 0 .469.345c-2.813 2.329-5.2 6.512-6.181 10.825-1.236-.561-2.855-.906-4.049-.129-.98.647-1.193 1.811-1.023 2.932.128.992.767 2.071 1.62 2.545.469.259.98.345 1.492.216.469-.087 1.364-.604 1.364-1.122 0-.215-.043-.258.085-.431 0 0 0-.043.043-.043 0 3.968 1.449 7.591 5.2 9.661-1.535 2.933-3.027 5.865-4.604 8.712-2.088-1.337-4.688-1.812-6.947-2.804-1.279-.56-2.515-1.293-3.325-2.458-1.151-1.596-.384-3.278-.043-4.96.853 0 1.748-.345 2.302-1.035 1.066-1.251.469-3.234-.682-4.226-.639-.561-1.492-.734-2.302-.518-.042-.216-.255-.345-.468-.216-.427.259-.725.647-.938 1.035a2.657 2.657 0 0 0-.64 1.122c-.085.259.043.431.214.56 0 .691.127 1.381.383 1.984.213.475.554.777.938.992-1.748 2.847-.426 6.168 2.131 7.893 2.6 1.768 5.925 2.372 8.908 3.364-3.111 5.521-6.649 10.61-11.977 14.578-.341.258-.511.776-.128 1.078 2.643 2.286 5.584 3.925 8.696 5.046-1.194 2.458-2.387 4.96-3.24 7.591-2.387-1.208-6.01-2.674-7.416-.302-2.089 3.536 4.944 4.873 6.819 5.434.299.086.768-.129.81-.475.128-.991.384-1.983.64-2.932.127 0 .255 0 .383-.043.426-.087.512-.777.128-.992-.043-.043-.128-.043-.17-.087.852-2.674 2.003-5.218 2.813-7.892 1.875.647 3.836 1.121 5.797 1.466l-.043.043c-.853 1.122-.853 3.019-1.108 4.356-.469 2.459-.853 4.874-1.364 7.332-.086.345.085.69.426.777 2.685.905 9.889 2.717 11.338-.863.852-2.113-1.833-3.407-3.367-3.795-2.004-.475-4.433-.561-6.479-.043.17-1.036.341-2.071.469-3.106.213-1.337.81-3.234.383-4.571 4.007.69 8.141.819 12.191.733.383 0 .639-.302.682-.69.213-2.588-.512-4.831-1.237-7.289-.98-3.364-.937-7.03-1.236-10.524-.341-3.838-.298-8.841-1.747-12.507 3.154 0 6.138-1.035 8.567-2.803 1.364 1.164 3.495 1.207 4.731-.216.554-.647.853-1.553.64-2.415-.213-.776-.853-1.251-1.577-1.467a14.314 14.314 0 0 0 1.96-5.391c.597.087.81-.733.341-1.078-.085-.043-.128-.086-.213-.129.043-.518.043-1.078.043-1.596a11.871 11.871 0 0 0-.981-4.399c.128.043.341 0 .341-.173.938-4.054 6.266-2.674 8.397-.474 2.43 2.544 2.089 7.979.341 11.041-.852-2.329-1.833-4.615-2.898-6.901-.256-.517-1.023-.345-1.151.13a5.983 5.983 0 0 1-.767 1.768c-.426-2.372-1.449-6.254-3.581-5.434-.554.215-.426.949.128 1.035 1.663.215 2.217 4.528 2.387 5.865.086.561.64.82 1.066.432a5.781 5.781 0 0 0 1.406-1.855 105.52 105.52 0 0 1 2.6 6.426c.128.388.725.69 1.023.259 3.197-3.623 3.623-10.998-.213-14.276zm-34.695 9.834a2.397 2.397 0 0 1-.256.345c-.17.172-.341 0-.511.129-.171.13-.384.259-.555.345-.213.086-.341.13-.468.13h-.128c-.043 0-.171-.044-.213-.044-.64-.301-.981-.948-1.151-1.682-.085-.301-.085-.776-.043-1.035.085-.345.256-.603.384-.733.341-.259.682-.302 1.193-.302.725.043 1.364.302 2.046.518-.213.733-.256 1.552-.298 2.329zm-10.954 6.512c-.256-.474-.341-1.078-.299-1.682.682-.647 1.279-1.38 2.302-.69.767.518 1.108 1.725.682 2.502-.64 1.121-2.174.905-2.685-.13zm3.537 44.941c-.852-.259-1.662-.475-2.515-.734a12.939 12.939 0 0 1-2.088-.948c-1.194-.691-1.023-2.2.426-2.243 1.535-.043 3.112 1.207 4.604 1.768-.128.733-.299 1.423-.427 2.157zm10.017-.302c1.321-.389 2.77-.389 4.134-.345.768.043 6.522 1.078 4.22 2.846-1.961 1.51-6.394.431-8.823-.302l.384-2.199h.085zm-1.705-67.195c-.043-1.078.298-1.941.81-3.062.255-.604-.299-1.251-.895-.906-1.364.733-2.515 1.682-3.41 2.89-.767-1.51-1.151-3.235-.043-4.658 1.066-1.337 2.984-1.812 4.603-1.855 4.86-.172 7.289 3.623 6.266 8.108-.298.173-.639.389-.938.604a.883.883 0 0 0 0-.474c-1.406-3.235-4.177-2.243-6.393-.647zm12.872 1.509c-.213.863-.042 1.855.299 2.847-1.492 3.148-7.673 3.45-10.827 3.321 2.259-4.658 6.138-8.022 10.528-6.168zm-1.151 38.816c.512 5.046 1.066 9.532 2.302 14.449.895 3.493-1.193 2.717-3.708 2.673a49.265 49.265 0 0 1-7.928-.776c-4.987-.819-9.718-2.76-13.682-5.952 7.885-6.253 12.36-15.095 16.282-24.281a15.953 15.953 0 0 0 4.944 1.337c0 .086 0 .215.043.345 1.492 3.278 1.406 8.582 1.747 12.205zm12.489-17.51c.128.474-.17 1.035-.469 1.38-.426.475-1.065.733-1.705.733-.511 0-.938-.215-1.321-.474.852-.733 1.662-1.553 2.344-2.458.469.086.981.258 1.151.819zm-.298-5.046c-.725 2.458-2.259 4.485-4.22 5.952-.213-.259-.682.043-.512.388-4.901 3.278-12.19 3.407-16.495-.863-3.069-3.019-2.813-9.531-.639-14.707 1.747.432 9.505-.302 11.934-2.458.469.906.981 1.768 1.364 2.372 1.876 3.148 5.669 5.348 9.079 6.685a23.993 23.993 0 0 1-.511 2.631zm-5.371-7.634c-1.151-.949-2.898-3.019-3.879-5.175.086-.432 0-.906-.383-1.424-.043-.086-.128-.129-.213-.172-.213-.776-.256-1.553-.086-2.243 1.407.776 6.82 3.839 7.417 4.313 2.259 1.855 3.111 5.003 3.069 8.065-1.961-1.078-4.135-1.854-5.925-3.364z" fill="#A8A8A8"/><path d="M214.246 419.669c-1.747 3.623-4.688 4.313-8.482 3.537-1.619-.345-3.239-1.036-4.56-2.114-1.364-1.121-1.151-2.199-1.364-3.752 0-.129-.213-.216-.299-.129-3.623 2.717 3.538 6.598 5.371 7.159 3.452 1.035 10.315.561 10.443-4.399-.043-.561-.853-.82-1.109-.302z" fill="#A8A8A8"/><path d="M206.659 414.364c-.767 0-.596 1.078-.596 1.553-.043.733-.128 1.509-.043 2.242a.405.405 0 0 0 .81 0c.085-.733.17-1.466.256-2.242.042-.475.383-1.553-.427-1.553zM209.643 414.191c-.085-.388-.554-.474-.81-.215-.426.388-.383 1.207-.426 1.725-.085.733-.171 1.466-.085 2.2.042.345.639.517.682.086l.255-1.941c.128-.561.512-1.294.384-1.855zM223.624 427.648c-1.577 0-4.22 1.38-4.05 3.278 0 .302.341.517.597.474.043.216.171.388.256.561 0 0-.043 0-.043.043-1.406 1.898-2.003 4.011-3.836 5.65-.469.431-6.308 3.45-6.436 2.242 0-.215-.298-.215-.341 0 0 .13-.043.302-.043.432a.413.413 0 0 0 .171.431c1.705 1.294 5.456-.819 6.905-1.811 1.918-1.294 3.921-3.882 4.39-6.254 1.492.992 4.049.819 4.902-1.466.639-1.855-.597-3.58-2.472-3.58zm-.938 4.528c-1.151-.086-1.577-.862-1.62-1.811.128-.129.213-.259.341-.388.213.129.426.302.597.517.043.043.128-.043.085-.086-.17-.216-.298-.431-.469-.647a3.498 3.498 0 0 1 1.236-.733c1.194-.388 2.174.043 2.132 1.38-.043 1.251-1.236 1.855-2.302 1.768zM114.431 34.179c-3.355-3.345-7.253-.05-7.056 3.744-3.009-1.298-8.042-1.797-7.302 2.696.987 5.84 7.598 7.588 12.631 8.487.197.599 1.233.599 1.381-.1.987-3.794 3.701-11.432.346-14.827zm-.198 5.94c-.148 2.746-1.184 5.342-1.48 8.038-3.256-.948-6.71-1.947-9.325-4.243-1.282-1.099-3.059-4.393-.69-5.292 1.776-.649 3.897.5 5.279 1.548.542.399 1.381-.25 1.134-.899-.789-2.047-.296-4.693 2.27-4.892 2.862-.25 2.911 3.944 2.812 5.74zM233.001 322.468c-1.184-4.044-2.713-8.537-5.871-11.432-1.924-1.797-4.095-.999-5.23 1.148-1.431 2.746-1.036 6.34 0 9.336-2.812-1.498-5.822-2.646-8.881-1.099-4.243 2.147-.838 6.939 1.481 8.737 2.861 2.246 7.154 1.947 10.508 1.947 1.974 0 5.526.399 7.352-.899.197.2.493.3.74.1 2.171-1.648.493-5.841-.099-7.838zm-.74 6.939a.943.943 0 0 0-.099.35c-2.417-1.049-6.463-.1-8.93-.15-2.269-.05-4.884-.1-7.006-1.148a9.833 9.833 0 0 1-2.22-1.797c-.296-4.593 1.036-6.341 3.947-5.192 1.826.449 3.503 1.497 5.131 2.446.691.399 1.382-.35 1.036-1.049-1.381-2.745-1.825-5.741-1.282-8.736.986-5.092 5.131-.25 6.167 2.097 1.283 2.696 5.131 10.234 3.256 13.179zM133.81 116.911c-3.256-12.181-27.925-14.627-30.688-1.198-4.193-5.042-18.945 2.895-9.966 8.686-2.96.749-5.082 3.046-3.75 6.69 1.58 4.343 6.069 4.044 9.572 2.546-2.467 6.041 0 12.68 7.598 12.78 6.858.1 11.397-7.388 11.15-13.878 2.714 2.196 6.562 1.497 9.818-.699 4.687-3.145 7.796-9.236 6.266-14.927zm-16.824 12.081c-.345-.798-1.727-.249-1.431.599 2.171 5.991-1.233 12.93-7.154 14.977-8.436 2.896-10.46-6.889-6.907-12.431.444-.649-.394-1.497-1.036-1.048-2.861 1.897-7.105 3.545-9.374-.1-2.27-3.544 1.924-5.441 4.835-5.242.938.05.938-1.198.197-1.547-12.186-5.092 7.796-15.027 7.302-3.695 0 .4.642.5.691.1.197-1.298.148-2.396-.099-3.245.247-.099.494-.299.543-.649 1.628-13.129 24.225-9.435 27.826.649 2.714 7.838-10.903 21.717-15.393 11.632zM143.022 227.665c-7.154.1-13.321 5.591-18.896 9.535-.148.1-.346.25-.494.35 0-.05 0-.1-.049-.1-1.382-.749-2.615-2.696-3.651-4.543 3.108-.949 5.97-3.594 8.93-4.992.493-.25.493-1.099 0-1.348-5.131-2.446-10.262-4.893-15.64-6.54-.592-.2-1.036.399-.937.949.838 3.993 3.552 7.887 5.723 11.232.74 1.148 3.355 5.941 5.328 5.591-3.601 2.496-7.351 4.643-11.742 5.192-1.628.2-3.651-.549-5.18.35-.247.15-.346.449-.346.699-.148-.05-.345-.1-.493-.15-.543-.15-.79.549-.346.849 7.302 5.341 15.048 11.532 23.978 6.14 8.141-4.942 12.877-13.08 14.654-22.315 0-.35-.296-.899-.839-.899zm-28.961-5.691c4.292 1.448 8.437 3.345 12.532 5.292-2.566 1.198-5.526 2.646-7.352 4.493-.296-.549-.592-1.099-.838-1.498-1.53-2.496-3.405-5.342-4.342-8.287zm16.429 26.209c-4.638 3.595-9.275 4.493-14.653 2.047-1.579-.699-3.059-1.697-4.49-2.646-.74-.499-1.529-.998-2.269-1.498-.346-.249-1.727-.748-2.122-1.098.247.1.494 0 .642-.2h.098c.099 0 .148-.099.099-.149.099 0 .247-.05.395-.1h1.578c1.135 0 2.122.05 3.257-.15 3.355-.649 6.167-2.097 9.078-3.894 6.167-3.844 12.384-10.533 19.932-11.182-1.677 7.688-5.279 13.978-11.545 18.87zM267.835 151.881c-.099 0-.148-.05-.247-.1 2.862-3.994 5.575-10.184 2.27-14.427-1.036-1.348-3.158-1.698-4.687-.999-1.826.849-2.763 2.446-3.207 4.244-2.566-2.147-7.549-4.494-7.943.149-.445 5.142 6.413 9.935 11.446 11.433-.05.599.888 1.198 1.332.599.049-.1.148-.15.197-.25.247.05.494.1.74.1.444.05.543-.649.099-.749zm-11.052-7.638c-1.036-1.448-2.17-5.142.839-4.493 1.727.349 3.256 1.697 4.342 3.045.444.599 1.233.05 1.283-.549.394-4.843 5.92-6.54 6.611-.799.395 3.295-1.826 7.139-3.799 9.835-3.651-1.448-7.006-3.894-9.276-7.039zM20.494 132.742c2.418-2.796 3.849-6.49-.049-8.437-5.23-2.696-8.338 2.896-9.078 7.588-1.727-2.945-4.638-6.04-7.104-2.396-2.22 3.295-.691 6.49 2.022 8.287-2.417.599-4.49 2.047-2.467 4.892 1.777 2.397 4.342 2.247 6.464.999-.05 3.195 2.466 8.537 4.687 8.936 5.427.899 6.66-4.543 5.13-8.736 3.553 1.348 7.5.249 7.895-4.493.395-4.593-3.651-6.89-7.5-6.64zm-1.825 8.487c-.79-.649-1.776.349-1.085 1.098 1.825 2.147 3.108 11.083-2.615 8.537-1.036-.45-4.243-7.738-2.763-8.038.592-.1.641-.649.444-1.048.099-.1.197-.25.296-.35.296-.349-.345-.798-.641-.499l-.444.45h-.05c-.592.099-.987.449-1.233.998-1.332.799-2.813 1.048-4.44.25-.79-.4-1.431-1.149-1.53-2.047-.247-1.947 3.848-1.598 4.786-1.598.888.05 1.036-1.348.197-1.547-3.01-.699-5.476-2.646-4.588-6.041 1.43-5.441 5.624 2.047 6.265 3.744.296.799 1.629.749 1.53-.199-.296-3.245.345-6.94 3.108-8.986 2.27-1.348 4.095-.55 5.427 2.396a6.661 6.661 0 0 1-.937 2.097c-.69 1.198-1.776 2.296-2.96 3.095-.444.249-.889.499-1.283.848-.69.599.197 1.648.937 1.248.395-.249.839-.549 1.283-.898 2.812-1.448 6.562-.4 7.894 2.746 2.27 5.641-4.588 6.24-7.598 3.744z" fill="#A8A8A8"/><path d="M1506.55 503.138c-3.67 1.304-6.64 4.73-10.78 3.996-.17-.035-.28-.021-.39.048-.79-3.923-3.57-7.996-5.54-10.415-4.08-5.046-10.77-10.788-17.62-11.186 1.69-2.362 2.87-5.227 4-7.632 2.1-4.566 3.63-9.342 4.85-14.251.15-.642-.66-1.279-1.18-.931-2.32 1.307-4.37 2.977-6.62 4.445-1.25-3.526-1.73-7.149-2.67-10.772-.22-.991-1.47-1.063-1.74-.01-.68 2.803-2.39 5.053-3.79 7.492-.11.014-.16.077-.2.195-1.06 1.547-1.71 3.157-2.52 4.844-2.02 4.385-5.91 1.92-8.92 2.123-1 .068-2.06.198-3.1.44-.54-.329-1.23-.414-1.85.059-.2.139-.39.446-.58.753-1.02.465-1.95 1.147-2.63 2.025-3.66 4.757-.71 10.283 3.99 12.986 6.33 3.634 14.04 5.625 20.47.978.52-.404 1.02-.863 1.47-1.372.13.154.32.301.6.322 9.21.389 24.76 14.098 21.62 24.229-2.37 7.656-14.56 1.463-18.87-.779-7.38-3.902-12.33-11.615-15.18-19.192-.25-.649-1.16-.253-.97.403 2.54 8.238 7.74 15.694 15.23 20.092-1.32 1.183-1.43 3.178-1.8 4.81-.12.412-.24.823-.42 1.185-1.62-1.838-4.66-4.293-7.12-2.743-1.73 1.064-1.26 3.668-.15 5.003 1.77 2.104 5.52 1.979 7.51.26 2.23-2.033 1.6-5.523 2.76-8.102.12.098.3.133.42.231 2.16 1.149 5.02 2.55 7.93 3.38-.12-.042-.28.034-.37.159-1.9 2.501-1.58 8.181-5.41 8.543-1.22.151-2.3-.905-2.27-2.098.05-1.932 2.53.026 3.1.523.75.644 1.73-.554.97-1.254-1.31-1.14-3.74-2.708-5.15-.834-1.07 1.435-.21 3.537 1.03 4.517 1.86 1.469 4.63.616 5.81-1.286 1.43-2.216 2.25-5.263 2.73-7.872.03-.23-.1-.384-.22-.426 4.02 1.146 8.24 1.19 11.08-1.881.1-.126.2-.251.3-.321 6.76 1.033 12.12-3.142 13.46-9.879-.07-.614-.73-.985-1.27-.805zm-56.42-29.946c.34.468.69 1.048.71 1.215.13.607-.1 1.088-.5 1.534.12-.411.13-.865.09-1.144-.01-.167-.09-.328-.22-.482a.652.652 0 0 0-.57-.552c-.12-.098-.3-.133-.47-.169.31-.208.64-.305.96-.402zm20.18 11.945c-5.06 7.141-15.53 3.735-21.33-.191-2.44-1.68-3.95-4.495-3.42-7.11.44.343.97.616 1.32.686 1.51.38 3.28-.349 4.39-1.393 1.21-1.169 1.42-2.781.52-4.199l-.01-.056c2.28-.225 4.7.212 6.81.517 4.12.567 5.33-4.399 6.71-7.515.35.071.72-.089.96-.458 1.11-2.063 2.36-3.861 3.3-5.903.65 3.148 1.24 6.303 2.44 9.327.24.593.86.63 1.34.344 1.89-1.14 3.63-2.546 5.46-3.735-1.84 6.855-4.43 13.973-8.49 19.686zm-4.01 34.822c-1.18-.477-2.27-2.098-1.4-3.282 1.31-1.804 4.7 1.74 5.64 2.531-1.06 1.037-2.59 1.397-4.24.751zm28.55-7.273c.64-1.213.87-2.601.77-4.003 3.92.817 6.81-1.863 10.1-3.517-1.55 5.063-5.57 7.657-10.87 7.52z" fill="#ABABAB"/><path d="M1465.58 476.891c-.03-.223-.1-.384-.18-.544v-.056c.05-.46-.34-.921-.77-.811-.07-.049-.13-.098-.13-.098-.06-.049-.12-.042-.18-.091-.06-.049-.13-.153-.19-.202-.38-.406-1.18-.024-1.18.485.01.112-.03.231-.02.342-.47.229-.88.563-1.05 1.037-.24.369-.24.823-.19 1.269.04.391.41.629.74.588.61-.076 1.47.1 2.06-.198.38-.104.75-.32.93-.682.09-.181.13-.3.11-.467.04-.174.07-.404.05-.572zM1459.81 498.941c-2.32 3.229-5.07 12.339-10.46 8.989-1.46-.895-3.25-3.275-1.53-4.847 2.19-1.967 5.16 1.851 6.18 3.365.61.887 1.9-.121 1.29-1.007-1.64-2.513-4.46-5.501-7.79-4.128-2.25.901-2.58 3.827-1.4 5.718 1.6 2.631 5.25 4.611 8.12 2.672 3.16-2.202 5.11-6.686 6.38-10.238.11-.522-.51-.955-.79-.524z" fill="#ABABAB"/><path d="M1465.79 506.382c-.9 1.413-1.92 4.2-3.27 6.121a.557.557 0 0 0-.29-.586c-.9-.455-1.75-1.482-2.6-2.055-.97-.616-1.92-1.008-3.09-.976-2.96.196-2.09 3.767-.81 5.136 1.42 1.523 4.42 3.132 6.15 1.107 2.07-2.407 3.28-5.555 4.33-8.516.09-.237-.22-.481-.42-.231zm-7.83 7.422c-.85-.518-1.98-1.51-1.94-2.591.09-1.651 2.45-.245 2.99.083.85.574 1.9 1.803 3.05 1.603.06-.007.11-.014.16-.076-1.12 1.44-2.5 2.121-4.26.981zM1825.24 79.948c-2.26.359-4.47.896-6.77.94-2.43 0-4.47-1.566-6.33-2.954-.39-.314-1.1.09-1.06.626.27 2.15.49 4.254.75 6.403v.18c-1.54.716-3.09 1.566-4.6 2.372-.53.269-.44 1.164.18 1.299 1.33.268 5.4-.448 6.15.627 1.19 1.656.97 4.432 1.73 6.313.26.627 1.15.716 1.37 0 .57-1.88.84-3.806 1.24-5.687.17-.76 3.8-.09 4.64-.134.49-.045.93-.582.62-1.075-.44-.671-2.61-2.596-1.95-3.134 1.69-1.343 3.24-2.955 4.74-4.477a.791.791 0 0 0-.71-1.299zm-6.06 5.508c-.31.224-.27.76 0 .985.66.671 1.33 1.253 1.95 1.97-1.11-.09-2.22-.269-3.37-.493-.39-.09-.75.09-.88.493-.4 1.388-.62 2.776-.93 4.209-.31-1.568-.58-3.09-1.46-4.344-.71-.985-2.43-.94-4.03-.85.71-.359 1.42-.717 2.17-1.075.18 0 .31-.09.44-.224.05 0 .09-.044.14-.044.57-.27.39-.94-.09-1.21-.14-1.611-.31-3.223-.49-4.835 3.58 2.328 6.64 2.328 10.71 1.701-1.33 1.254-2.7 2.508-4.16 3.717zM1748.29 45.156c-7.78-9.031-44.4-13.315-41.54 5.326 0 .231.12.463.34.694-1.6.695-2.05 2.084-.8 4.747.35.811 1.38.348 1.49-.463.69-6.368 17.05 1.853 19.34 3.01 10.18 5.443 15.33 22.926 7.78 32.073-1.14 1.273-.11 3.241 1.72 2.894 21.28-4.863 24.83-32.998 11.67-48.281zm-8.24 43.418c5.15-11.694-1.37-27.672-12.7-33.461-1.72-.81-11.79-4.516-17.74-4.284.12-.232.12-.347.12-.579.23-8.915 11.78-9.03 18.3-8.8 7.79.232 14.77 2.432 19.57 8.916 9.16 12.041 5.61 31.609-7.55 38.208zM1639.08 234.429c-2.52-1.164-4.96-2.149-7.74-2.507-2.08-.224-2.48-10.746-2.66-12.268-.09-.672-.84-.94-1.28-.358-1.51 2.149-2.08 4.925-3.1 7.343-1.9 4.477-6.5.447-9.51-.403-.4-.135-.93.313-.75.761 1.1 2.821 2.69 5.283 4.38 7.746.31.492 1.1.044.79-.448-1.33-2.06-2.61-4.074-3.54-6.313 2.44 1.253 6.2 3.716 8.19 1.746 2.08-2.104 2.52-5.239 3.67-7.925.49 3.716 1.02 7.388 1.86 11.014.09.314.35.493.66.493 2.22-.045 4.16.537 6.07 1.343-2.66.403-5.27.985-7.93 1.254-.39.045-.79.403-.66.895.66 1.926 1.28 3.806 1.59 5.776-1.94-2.015-3.93-5.015-6.32-5.507-2.3-.448-4.56 2.149-6.55 3.851.62-1.791 1.55-3.403 2.56-5.06.45-.761-.7-1.433-1.15-.672-1.41 2.329-2.7 4.612-3.23 7.299-.13.582.45 1.074 1.02.761 2.52-1.388 5.58-6.224 8.41-3.896 2.08 1.702 3.63 3.941 5.84 5.508.4.313 1.06-.09 1.02-.582-.14-2.508-.84-4.746-1.6-7.119 3.19-.403 6.33-1.165 9.56-1.478.67 0 1.11-.94.4-1.254zM1722.18 148.463c-.8-2.691-3.73-3.543-6.25-3.318-3.77.403-5.45 4.439-6.78 7.488-.36.762.75 1.434 1.11.672 1.06-2.287 2.08-4.842 4.29-6.232 2.04-1.301 5.37-.538 6.3 1.793 1.72 4.394-3.33 7.578-7.01 6.636-.7-.179-1.24.897-.53 1.256 2.31 1.121.53 3.228-.93 4.169-2.12 1.39-3.59.359-3.99-1.614 0-.403-.04-.807-.13-1.21-.18-.718-1.28-.538-1.28.179 0 .493.08.986.17 1.39.05 1.435-.44 2.914-2.08 3.004-2.79.135-.35-4.259.27-5.111.31-.494-.22-1.211-.76-.987-1.24.449-3.94 1.031-4.21-.986-.26-2.197 3.46-1.435 4.48-1.166.8.224 1.15-.852.53-1.3-1.59-1.121-2.44-3.004-.89-4.529 2.22-2.152 3.37 1.794 3.59 3.363.05.403.67.314.67-.09-.09-2.555-1.64-6.501-4.83-4.528-2.17 1.345-1.95 3.632-.8 5.335-1.99-.134-4.12.404-4.12 2.87 0 2.421 2.44 2.914 4.43 2.645-1.02 2.153-1.68 5.157 1.24 5.695 1.86.358 2.93-.762 3.41-2.242 1.07 1.3 2.84 1.614 4.97.359 1.81-1.077 3.23-3.318 2.48-5.022 4.25-.045 8.06-3.856 6.65-8.519zM1871.09 163.921c-2.92-10.941-25.08-13.138-27.56-1.076-3.77-4.529-17.02 2.6-8.95 7.801-2.66.673-4.57 2.736-3.37 6.009 1.42 3.901 5.45 3.632 8.6 2.286-2.22 5.426 0 11.389 6.82 11.479 6.16.09 10.24-6.636 10.02-12.465 2.43 1.973 5.89 1.345 8.81-.628 4.21-2.824 7.01-8.295 5.63-13.406zm-15.11 10.851c-.31-.718-1.55-.225-1.28.538 1.95 5.38-1.11 11.613-6.43 13.451-7.58 2.6-9.39-6.188-6.2-11.165.4-.583-.36-1.345-.93-.941-2.57 1.704-6.38 3.183-8.42-.09-2.04-3.183 1.73-4.887 4.34-4.708.84.045.84-1.076.18-1.39-10.95-4.573 7-13.496 6.56-3.318 0 .359.57.449.62.09.17-1.166.13-2.152-.09-2.915.22-.089.44-.269.48-.582 1.47-11.793 21.76-8.475 25 .582 2.43 7.04-9.8 19.505-13.83 10.448zM1780.87 230.828c3.23-.986 6.78-3.99 5.1-7.443-1.02-2.152-4.57-2.152-6.43-1.659-1.6.449-3.15 1.749-4.17 3.273.54-4.08-4.34-7.488-7.93-5.38-2.97 1.749-.04 6.681 1.95 9.73-1.55-.628-3.32-1.032-4.74-.404-1.59.718-3.1 2.825-2.52 4.753.84 2.69 3.63 2.959 5.98 2.107-1.73 3.811-2.13 9.192 3.06 9.551 3.94.269 6.24-3.767 6.77-7.578 1.38 1.838 3.55 3.094 5.5 1.435 3.72-3.184.44-6.412-2.57-8.385zm.75 7.578c-2.08-.359-3.23-1.569-3.54-3.677 0-.045 0-.134-.05-.179-.13-.762-1.41-.583-1.33.179 0 .045.05.135.05.18.53 2.914-.67 6.097-2.7 8.16-2.97 3.049-6.12-1.39-5.59-4.439.27-1.659 1.24-3.273 2.35-4.484.58-.672-.35-1.614-.97-.986-1.29 1.345-3.02 1.883-4.83 1.524-2.44-2.466-1.6-3.945 2.57-4.439 1.19.225 2.34.807 3.45 1.346.58.269 1.33-.314.93-.942-1.02-1.704-2.12-3.318-3.1-5.112-.71-1.345-2.26-4.349.22-5.156 2.75-.941 5.94 2.421 5.23 5.201-.09.359.22.628.49.583-.05.135-.13.269-.18.404-.31.852 1.02 1.21 1.33.358 1.15-3.228 5.01-4.842 8.07-3.497 2.48 1.076.17 3.632-.58 4.484-1.15 1.21-2.84 1.838-4.48 1.883-.66 0-.97.942-.35 1.3 1.24.718 2.39 1.435 3.54 2.332 1.56 1.121 1.42 2.825-.53 4.977zM301.829 486.45c-.278-2.011-1.433-3.835-2.958-5.144a7.429 7.429 0 0 0-.324-1.591c-.832-2.619-3.651-3.975-6.193-4.115l-.185-.187c-.093-.094-.231-.14-.324-.094-.878-2.057-2.681-4.396-4.807-2.385-1.525 1.45-.601 2.666.832 3.461-2.033.421-3.928 1.45-3.928 3.648 0 2.759 3.096 1.777 5.269.701-.231.468-.463.936-.647 1.45-2.219-.888-9.753 4.537-11.509 6.22.046-1.73.231-3.507.462-5.238.046-.327.555-4.489.324-4.396.508-.187.554-.935 0-1.076l-.185-.046c.277-.234.554-.468.739-.749.046.094.046.187.093.234.693 1.684 2.172 2.619 3.928 2.198 2.82-.654 2.866-3.881 1.664-6.22 1.017 0 1.988-.374 2.912-1.169 1.34-1.216 1.387-3.741.231-5.098-1.294-1.496-4.021-2.291-5.731-1.496-.231-1.964-1.202-3.788-3.559-3.508-2.126.281-2.681 1.964-2.542 3.742-1.664-1.263-3.744-1.497-5.361.701-.786 1.123-.786 2.619-.139 3.742.693 1.216 2.08 1.683 3.466 1.823-1.664 2.245-2.449 6.08 1.063 6.548.74.093 1.526 0 2.219-.281-.093.234-.093.468-.139.795-.092 1.263-.138 2.479-.323 3.742a52.14 52.14 0 0 0-.416 3.882c-.74-1.497-1.572-2.994-2.542-4.35-.74-1.076-1.618-2.011-2.635-2.759-.878-.702-1.849-.608-2.819-1.029v.047a.631.631 0 0 0-.416 0c-.231-.702-.786-1.403-1.387-2.011 1.757-.234 3.189-1.263 3.189-3.461 0-1.497-.785-2.198-1.802-2.432 1.063-1.356 1.109-3.18-.416-4.911-2.173-2.478-4.299-.982-5.5 1.123-.416-1.263-1.248-2.245-2.774-1.871-1.71.421-2.357 1.777-2.264 3.274-.878-.374-1.71-.328-2.404.795-1.063 1.73.462 3.18 2.08 3.882-1.433 1.028-3.466 2.478-3.004 4.068.416 1.497 1.71 1.544 2.912 1.123-1.294 3.227-2.265 8.558 1.34 9.12 3.189.514 4.252-3.602 4.437-6.642 1.387 1.263 3.143 1.871 4.853.421.509-.421.786-.888.878-1.356.555.328 1.156.234 1.803.515 1.34.608 2.357 2.057 3.143 3.227 1.387 2.011 2.496 4.302 3.282 6.594.277.748 1.386.655 1.386-.187v-.374c.139.046.324 0 .462-.141 1.526-1.45 3.467-2.525 5.269-3.554.786-.468 4.807-2.946 5.5-2.479-.231 1.123-.046 2.198 1.017 2.9 1.664 1.076 3.328.093 4.53-1.263.092 3.134 1.479 6.875 4.76 6.407 1.895-.187 3.467-2.899 3.19-4.77zm-36.421-20.204c2.357 1.263 1.294 3.601-.463 4.63-.277.094-.508.234-.739.375-.647.374-.231 1.496.508 1.215.046 0 .093-.046.139-.046.231-.094.462-.187.647-.328 1.202-.421 2.45-.14 2.219 1.544-.278 1.917-2.543 1.73-3.837 1.403h-.185c.093-1.544-.277-3.181-.97-4.35-.278-.514-.647-.842-1.063-1.029.416-1.917 1.433-4.676 3.744-3.414zm-3.975 5.098c-.647-.187-1.202-.234-1.71-.093.554-.468 1.155-.702 1.71.093zm-3.005-4.911c1.757-1.262 1.942 1.824 1.942 2.947-.463.047-.925.234-1.341.514-.37-.187-.832-.514-1.248-.842-.277-.935-.323-1.917.647-2.619zm-2.958 4.63 1.11-1.449c.092.327.184.608.323.935.277.608 1.202.281 1.202-.281a.99.99 0 0 0 .231.141c.046 0 .046.046.092.046a4.962 4.962 0 0 0-1.016 1.544 4.202 4.202 0 0 1-1.942-.936zm0 5.8c-.878-.608-.924-1.123-.138-1.59.647-.655 1.432-1.17 2.172-1.778-.277.749-.416 1.59-.324 2.386h-.046a6.037 6.037 0 0 1-1.664.982zm3.143 8.745c-2.08 2.432-2.403-3.554-2.311-4.302.185-1.31.647-2.619 1.294-3.742a3.324 3.324 0 0 0 2.727 1.637c.093 2.151-.323 4.77-1.71 6.407zm.37-8.512c-1.618-1.636.139-5.799 2.496-5.378.046 0 .092 0 .139-.047.693 1.31.785 3.04.462 4.443-.37 1.59-1.803 2.245-3.097.982zm6.609 2.947c-1.201 1.496-2.865-.14-3.697-1.216.508-.281.924-.702 1.248-1.263.185-.374.323-.795.416-1.216 1.155.655 3.42 1.964 2.033 3.695zm17.703-3.367c-.463 1.823-2.543 1.543-3.374.28-.139-.187-.832-1.871-.555-2.058.416-.327.37-.841.046-1.122.924-.187 1.849-.655 2.45-1.31 1.34.889 1.849 2.666 1.433 4.21zm-1.942-8.559c.047-.281.093-.561.139-.889.508-1.449 2.819-.888 3.929-.233 3.096 1.824.092 5.846-2.958 4.115.046-.327 0-.701-.139-1.122a3.811 3.811 0 0 0-1.109-1.59c.046-.047.138-.141.138-.281zm-.508 3.461c-.324.421-.971.701-1.525.842-.093-.234-.231-.421-.416-.515-.185-.093-.416.094-.324.328v.28c-.554-.047-.924-.514-1.063-.982-.139-.327-.185-.655-.185-1.029.139-.374.231-.748.462-1.075l.093.093c.139.14.37-.047.277-.234-.046-.047-.092-.093-.138-.187.046-.047.092-.093.138-.093.416-.281.971-.234 1.433 0 .832.421 2.034 1.683 1.248 2.572zm-2.635-8.418c1.942-.234 2.126 2.104 1.988 3.741-.046.234-.093.515-.139.795a3.395 3.395 0 0 0-1.802-.234c-.278.047-.555.187-.832.328-.694-1.403-1.526-4.35.785-4.63zm-2.588 13.936c-1.387.375-2.218-.701-2.311-1.917-.092-1.403.878-2.572 1.988-3.321.554-.374.369-1.309-.37-1.309-1.895 0-5.131-.748-3.836-3.367 1.386-2.853 4.159-.281 5.176 1.356.046.094.093.14.139.187-.416.655-.647 1.45-.37 2.105.046.046.046.093.092.187.139 1.309.971 2.572 2.265 2.759 0 .093-.046.14-.046.14 0 .047 0 .094-.046.094-.231.28-.277.655-.324 1.029-.369 1.075-1.155 1.73-2.357 2.057zm12.248-3.227c1.063-1.964 2.912 1.216 3.513 2.432-.092-.046-.185-.093-.324-.14-.97-.093-4.113-.561-3.189-2.292zm6.194 8.419c-.37.654-.786 1.262-1.294 1.824-.139.14-.278.28-.463.421-1.063 1.169-1.987.701-2.773-1.31.324-1.356 1.202-2.572 1.803-3.835.231-.514-.278-1.309-.878-.889-.463.328-5.547 3.415-5.223 1.263.37-2.291 4.252-2.338 5.823-2.245a.858.858 0 0 0 .37-.093c.185 1.403.925 2.666 1.803 3.788.277.327.601.655.97.982-.046-.047-.092 0-.138.094zm-1.618-5.332c1.895.14 4.252 1.076 4.853 3.087 0 .093.046.187.093.28-.555 0-.879.842-.324 1.216.185.094.324.234.508.375-.092.233-.277.374-.739.28-2.219-.514-3.975-2.946-4.391-5.238zm5.731 13.095c-2.819.982-3.281-5.518-2.958-7.155.694.421 1.433.701 2.173.608a1.526 1.526 0 0 0 1.155-.655c2.034 2.291 3.328 5.939-.37 7.202z" fill="#ABABAB"/><path d="M271.231 483.176c.046-.093 0-.187-.092-.327-.047-.047-.139 0-.093.047-.323-.468-1.849-.047-2.265 0-1.155.187-2.311.514-3.281 1.169-1.109.748-2.866 3.133-1.849 4.49.878 1.122 3.189-.375 4.021-.889.878-.514 1.71-1.169 2.496-1.871.555-.514 1.618-1.309 1.572-2.151-.093-.14-.278-.421-.509-.468zm-1.618 1.31a10.532 10.532 0 0 1-2.126 1.683 16.78 16.78 0 0 1-1.987 1.123c-.277.14-.555.187-.832.28.092-.701.786-1.636 1.202-2.104.739-.795 1.941-1.076 2.958-1.356.138-.047.739-.141 1.34-.328-.185.281-.37.515-.555.702zM476.16 488.723c-.244-.423-.836-.317-1.011.141-1.114 3.102-5.12 4.441-7.941 2.961-1.289-.67-1.916-2.291-2.856-3.384 2.264-.669 4.249-2.114 4.981-4.405 1.254-3.736-3.24-7.19-5.956-8.635-.627-.317-1.185.634-.558.952 2.264 1.198 4.563 2.96 5.399 5.498 1.324 3.947-4.423 6.026-7.314 5.921-3.797-.141-6.444-3.666-5.747-7.366.209-1.163.87-2.291 1.776-3.208.244 0 .418-.211.453-.422 1.915-1.727 4.702-2.573 6.792-1.093.244.176.557-.211.348-.458-2.438-2.291-5.503-1.128-7.732.846-1.881-.599-3.832-.811-5.713-1.375-.452-.141-.801.388-.592.776.941 1.656 2.16 3.171 3.205 4.757-1.498.705-3.065 1.34-4.459 2.291a.496.496 0 0 0 .244.917c1.672.07 3.274.423 4.876.81h.035c.627 1.586 1.812 2.961 3.344 3.736-1.846 1.445-.871 5.428-.104 7.155 1.114 2.608 2.577 4.652 4.98 5.498-.034.035-.069.07-.069.105-.383 1.022-.836 2.009-1.185 3.067-1.462-.141-2.925-.177-4.423-.177-.348 0-.522.282-.522.529 0 .282.174.529.522.529 1.254 0 2.473 0 3.692.105-1.254 1.093-2.752 1.833-4.214 2.644-.523.282-.175 1.198.417.987 1.498-.564 2.961-1.163 4.528-1.481.209-.035.384-.282.384-.493-.035-.458.034-.881.104-1.304l.383-.388c.244-.282.174-.634-.069-.81.313-1.022.766-2.009 1.079-3.031v-.106a7.8 7.8 0 0 0 1.359.211c.801.071 1.637 0 2.542-.176-.592.811-.209 2.679-.174 3.524.035.353.035.741.07 1.093a40.678 40.678 0 0 0-1.672 1.903c-.627.564-1.045 1.022-1.324 1.868-.209.599.627.846.941.388a28.881 28.881 0 0 1 2.02-2.608c.105 1.198.279 2.396.348 3.595.035.634 1.01.669 1.01 0a49.697 49.697 0 0 0-.209-3.243l1.045 1.269c.453.529 1.185 1.621 1.986 1.551.313-.036.557-.423.278-.67-.592-.529-1.219-1.022-1.811-1.586-.522-.564-1.045-1.163-1.602-1.692-.035-.317-.07-.634-.07-.951-.069-.952-.174-1.903-.209-2.855 0-.247-.243-1.269-.104-1.48.035-.071.035-.106 0-.176 5.468-1.234 11.738-6.45 8.499-12.054zm-25.322-6.026c1.01-.529 2.02-.987 3.065-1.445-.07.775.035 1.586.278 2.326-1.079-.423-2.194-.635-3.343-.881zm3.517-3.313c-.766-1.093-1.532-2.186-2.264-3.313 1.289.317 2.613.493 3.867.846-.418.458-.767.916-1.08 1.374-.209.388-.383.74-.523 1.093zm11.495 20.582c-2.891.352-4.842-.987-6.34-3.383-1.706-2.714-2.194-5.428-1.01-8.247h.035c1.498.563 3.309.634 5.016.281v.036c1.707 5.639 9.369 6.308 12.121 1.586 1.881 5.251-5.503 9.198-9.822 9.727z" fill="#ABABAB"/><path d="M461.809 480.899c0-.035 0-.106.035-.141a.673.673 0 0 0-.07-.282v-.458h-.035c-.034-.599-.87-.669-.975 0-.069.599-.174 1.198-.209 1.798 0 .176-.035.352-.035.493-.034.705 1.045.705 1.08 0 0-.247.07-.529.105-.775.034-.141.069-.282.069-.423.035-.071.07-.494.035-.212zM468.358 493.375c-.349-.141-.627.318-.453.6.244.458.766.845.487 1.409-.209.494-.766.776-1.253.952-1.672.599-2.578-.564-2.543-2.15.035-.634-.941-.634-.975 0-.07 2.643-2.752.952-1.986-.07.174-.212-.139-.459-.348-.353-1.254.705-.314 2.115.627 2.573.871.423 1.567.211 2.02-.317.592 1.269 1.985 1.833 3.623 1.269 1.567-.529 3.03-3.102.801-3.913zM395.905 497.752a29.576 29.576 0 0 0-3.928-1.263c-.601-.14-1.572-.468-2.358-.421-.554-3.741-3.651-7.296-7.348-5.659-6.933-1.356-8.505 11.692-2.45 14.498-.924 4.163-5.223 6.548-8.736 2.9-.416-.421-1.016-.187-1.201.327-1.063 2.993-1.618 6.735 1.017 9.073 1.34 1.169 3.142 1.59 4.945 1.544.832 4.115 1.987 8.09 2.496 12.299.092.842 1.386.889 1.34 0a105.018 105.018 0 0 0-.231-3.835c1.294.795 2.635 1.965 4.067 2.058.509.047.74-.655.416-.982l-.138-.14c-1.479-1.076-3.143-2.105-4.853-2.759a.503.503 0 0 0-.37 0c-.555-2.245-1.248-4.49-1.987-6.688a11.486 11.486 0 0 0 2.264-.374 60.48 60.48 0 0 0 1.433-.421c1.572 3.133 2.866 6.407 4.622 9.4.185.327.416.701.601 1.029.508.748 1.664.047 1.202-.702-.185-.28-.324-.561-.509-.795a11.376 11.376 0 0 1-.693-1.543c1.387.187 2.773.374 4.16.374.693 0 .924-.935.369-1.309a4.285 4.285 0 0 0-1.294-.468c-.277-.094-.508.093-.647.281a40.434 40.434 0 0 1-3.42-.421h-.185c-.231-.421-.416-.842-.647-1.31-.416-.888-.878-1.777-1.294-2.666-.231-.421-.462-.888-.693-1.309a1.501 1.501 0 0 0-.185-.281c.185.094.323-.14.138-.234a4.281 4.281 0 0 0-.601-.374c5.038-2.338 7.765-7.623 3.975-12.72 1.803-.936 3.19-2.619 3.883-4.584 2.357.281 4.807-.093 6.933-1.216.647-.374.416-1.075-.093-1.309zm-17.008 19.081c-2.127.655-4.622.748-6.61-.421-2.357-1.403-2.034-4.396-1.34-6.781 4.021 3.086 9.105.514 9.845-4.35.046 0 .138.047.184.047a6.095 6.095 0 0 0 2.912-.047c.046.094.046.188.139.234 3.975 5.098 0 9.775-5.13 11.318zm9.197-17.631c-.185 0-.37-.047-.554-.047-.463-.047-.509.655-.093.795.139.047.277.047.416.093-1.155 2.713-4.16 4.771-6.979 3.882v-.187c-.046-.468-.647-.514-.786-.14-2.357-1.31-2.958-4.77-2.588-7.249.37-2.572 1.71-3.929 3.697-4.583.139.374.509.654.971.421 3.929-2.386 6.24 2.338 6.147 5.752-.046.374-.092.795-.231 1.263zm1.341.046a7.449 7.449 0 0 0 .231-1.73c.647.14 1.34.187 1.941.281.832.187 1.618.421 2.403.701-1.432.608-3.004.795-4.575.748z" fill="#ABABAB"/><path d="M381.762 495.226c-.231.702-.139 1.263.092 1.965 0 .046.047.046.047.093 0 .187 0 .421.046.608a.393.393 0 0 0 .786 0c0-.187.046-.374.046-.608 0-.047.046-.047.046-.093.185-.562-.046-1.076.093-1.637.138-.795-.879-1.076-1.156-.328z" fill="#ABABAB"/></svg>