<svg width="34" height="28" viewBox="0 0 36 28" fill="none" xmlns="http://www.w3.org/2000/svg">
<path d="M30.7745 14C30.7745 21.4528 24.6924 27.5 17.183 27.5C9.67354 27.5 3.59149 21.4528 3.59149 14C3.59149 6.54722 9.67354 0.5 17.183 0.5C24.6924 0.5 30.7745 6.54722 30.7745 14Z" stroke="#5E727C"/>
<path d="M20.6064 14.7955L20.9385 12.4921H18.8618V10.9974C18.8618 10.3673 19.1519 9.75302 20.082 9.75302H21.0261V7.79198C21.0261 7.79198 20.1694 7.63637 19.3502 7.63637C17.6399 7.63637 16.522 8.73956 16.522 10.7367V12.4921H14.6209V14.7955H16.522V20.3636H18.8618V14.7955H20.6064Z" fill="#5E727C"/>
</svg>
