<svg width="207" height="145" fill="none" xmlns="http://www.w3.org/2000/svg"><g clip-path="url(#a)" fill="#A8A8A8"><path d="M95.094 69.751c0-.534-.671-.97-1.055-.437-1.103 1.505-1.87 2.185-3.79 2.427-1.583.194-3.934-.097-5.229-1.068-1.007-.728-1.823-1.941-2.543-2.96-.335-.438-.575-.875-.911-1.311.096-.097.144-.195 0-.292-.288-.194-.432-.291-.72-.145-.144.048-.24.194-.288.34-.048 2.863 3.455 5.873 5.901 6.601 2.59.68 8.54.728 8.635-3.155zM88.138 65.236c.096-.534.24-1.068.384-1.602.144-.436.384-.922.384-1.359 0-.534-.768-.68-1.056-.291-.24.34-.24.97-.335 1.36a21.6 21.6 0 0 0-.192 1.747c.048.534.72.63.815.145zM92.456 61.596c-.624-.437-1.2.194-1.295.825v.097c-.144.34-.336.68-.528 1.02-.288.533-.576 1.213-1.007 1.698-.384.437.24 1.068.671.728.864-.728 1.487-1.941 2.015-2.912.336-.388.672-1.068.144-1.456z"/><path d="M105.169 91.352c-1.199-1.262-3.502-2.038-5.085-1.213-.048-.097-.144-.146-.288-.194-2.303-1.02-4.558-2.233-6.86-3.253-1.008-.436-2.4-1.213-3.646-1.31 0-.971-.048-1.893 0-2.864 0-1.165.287-2.913-.384-3.932-.336-.486-1.056-.243-1.152.291 0 .049-.047.146-.047.194-.048.243.047.437.191.534.384 1.7-.144 4.223-.144 5.874-.096 4.466.24 8.932.384 13.397v.292c-.144-.049-.336-.097-.528 0l-1.055.194c-.096 0-.192.049-.288.097-3.022.486-6.38-.582-9.259-1.262-.72-.146-2.494-.728-3.694-.583 1.488-4.514 2.83-9.126 4.558-13.543.384 0 .767 0 1.103.049.672 0 .912-.826.288-1.117a3.024 3.024 0 0 0-.863-.291c1.007-2.476 2.158-4.903 3.502-7.184 1.439.97 3.022 1.65 4.701 2.038 4.797 1.02 9.115-1.213 12.233-4.708 1.152 3.058 10.507 2.038 7.676-2.767 3.118-.243 3.742-4.126 2.111-6.99 3.454-2.428.096-8.204-2.111-10.534-1.391-1.505-3.118-2.379-5.133-2.282-.288 0-2.639-2.184-3.262-2.475-.912-.389-1.871-.291-2.83-.097-.816-2.379-2.591-3.398-5.23-2.719-.384.097-1.487.631-2.015 1.214-.24-3.155-4.173-3.35-6.38-1.7-2.735-3.64-7.052.146-7.484 4.03-5.805-1.845-8.827 6.747-2.974 8.883-2.111 2.039-4.75 5.583-2.735 7.913 2.303 2.67 4.51.194 6.093-2.379.288 4.66 2.83 9.272 6.572 12.087-1.679 2.379-2.974 4.903-4.126 7.524-1.055 0-2.158.146-3.022.194-2.543.243-5.085.631-7.628.729-.048 0-.144 0-.192.048-.192-.437-.48-.825-.767-1.165-.672-.728-1.583-1.213-2.59-1.165-.48.049-.912.243-1.296.583-1.343-.195-2.159 1.747-2.015 3.203.288 2.913 3.598 3.787 5.853 2.525 1.103-.632 1.343-1.845 1.151-2.962 1.871.049 3.79-.194 5.661-.388 1.44-.146 2.83-.146 4.27-.146-1.296 3.301-2.351 6.7-3.407 10.097-2.35 7.379-5.468 14.418-8.155 21.65-.096.292-.048.729.24.923 2.638 1.747 5.517 3.495 8.587 4.757v.048c-.432 1.408-.72 2.913-.96 4.369 0 .097-.047.146-.047.243-1.823-1.456-4.702-2.184-6.045.146-2.063 3.495 3.358 5.388 5.709 5.728.336.048.624-.146.767-.437.432-1.068.384-2.379.48-3.592.24-.243.288-.583.096-.874.192-1.796.48-3.544.768-5.34 1.727.631 3.454 1.117 5.277 1.359.048.097.096.146.144.243.288.534.24 1.262.192 1.893-.096 1.359-.432 2.719-.528 4.078v.437h-.048c-.432.194-.48.825 0 1.019.048 0 .096.049.144.049.288 1.893 1.44 3.398 3.646 3.786 2.11.34 5.517-1.117 4.605-3.738-.48-1.359-2.158-2.087-3.454-2.136-.96 0-2.255.146-3.406.486.144-1.651.384-4.466-.048-6.02.528.049 1.008.049 1.535.049 4.75-.097 10.17-1.068 9.835-6.845-.144-2.912-1.535-5.873-2.063-8.689-.864-4.466-.576-9.417-.72-13.931-.047-2.428-.144-4.855-.144-7.33 1.248.582 2.64.97 3.79 1.553 1.967.97 3.934 2.087 5.95 3.01-.049.048-.049.097-.097.145a.526.526 0 0 0 .048.534c-.623.923-.911 2.088-.623 3.301.671 2.864 3.79 3.64 6.14 2.233 2.159-1.262 2.351-3.98.528-5.874zm-40.202-5.097c-.528.632-1.68.68-2.399.583-.815-.097-1.439-.68-1.727-1.408-.144-.34-.144-.874-.096-1.359.192.194.48.243.672.049.336-.34.624-.826.96-1.165.143 0 .287-.097.287-.195.096-.048.144-.048.24-.097.528-.097 1.007.195 1.391.534.864.68 1.44 2.136.672 3.058zm29.936-37.037c1.966-.729 3.694 0 5.277 2.184.144.243.383.534.719.437 3.934-.971 10.938 8.3 6.429 10.34a.734.734 0 0 0-.288 1.116c1.583 2.087 1.727 6.165-2.015 5.194-.576-.146-1.103.728-.672 1.165 4.606 4.951-8.251 5.145-2.302-.049.383-.34.383-1.116-.192-1.262 3.502-6.99 3.022-15.388-4.606-16.456-.383-1.31-1.295-2.136-2.542-2.621.048-.048.144 0 .192-.048zm-16.551 3.834c-1.967 1.942-3.07 4.175-3.55 6.554-.192.388-.336.776-.528 1.116-.24.534-.48 1.068-.768 1.602-.72 2.039-2.11 2.039-4.078.049.576-1.796 2.207-3.641 3.647-4.806.48-.389.287-1.165-.336-1.262-5.805-.923-3.31-8.69 1.87-6.117.48.243 1.056-.242.96-.728-.192-1.844 2.687-8.203 5.373-3.495.24.388.864.34 1.104 0 2.398-2.864 4.317-.728 4.845 1.117.144.485.816.437 1.007.097.048.048.144.097.192.145.096.049.24 0 .24-.145-.192-1.894 5.325-.583 5.757 1.407.048.195.192.389.384.534-4.702-1.553-13.769 1.65-16.12 3.932zm6.572-1.747c2.926-1.02 8.443-2.185 10.746.485-.624.291-.671 1.408.144 1.408.24 0 .432.048.672.048a.708.708 0 0 1 .096.34c.096.437.815.534.815 0v-.145c4.51 1.068 5.613 5.728 4.75 10.34a17.227 17.227 0 0 1-1.44 4.271c-2.302-.922-2.974-4.417-1.199-6.31.528-.583-.192-1.36-.816-1.117-2.494 1.068-3.693-.146-3.645-3.64.48-.777-.528-1.651-1.104-.923-.863 1.117-6.764 4.806-6.524 0 .048-.777-1.008-1.068-1.344-.534a.145.145 0 0 0-.192 0c-.335.146-.287.485-.383.825a2.04 2.04 0 0 1-.432.68c-.432.34-1.007.437-1.535.437-.432 0-.816-.097-1.2-.291 0-.05.048-.05.096-.146.192-.291.096-.777-.288-.777-.48-.048-.863.194-1.103.534-.048-.145-.096-.291-.144-.485-.096-.243-.48-.194-.48.048-.047 1.36-1.583 4.515-3.597 2.67.959-4.32 4.077-6.359 8.107-7.718zm-8.347 9.029c1.966.825 4.365-.292 4.557-2.33.48.582 1.391.776 2.063.776.96.049 1.87-.194 2.543-.873.144-.146.287-.34.383-.534.72 3.058 4.318 2.864 7.004 1.31-.047 2.185 1.824 3.69 4.222 3.641-1.727 2.961-.767 6.165 2.59 7.136-1.918 3.107-4.845 5.582-8.347 6.505-9.45 2.427-16.119-6.942-15.015-15.631zm-4.654 70.144c-1.727-.34-5.085-1.359-4.126-3.398.912-1.942 3.502-.097 4.606.825-.096.874-.24 1.748-.48 2.573zm10.602.097c.816-.194 1.727-.388 2.543-.146.672.194 1.727 1.117 1.247 1.893-.671 1.02-2.302 1.068-3.358.923-1.2-.194-1.823-1.117-2.11-2.233.575-.146 1.15-.34 1.678-.437zM77.44 99.799a30 30 0 0 0 2.015.485c1.44.34 2.974.68 4.51.777.335 2.039 1.007 3.641.767 5.922-.336 2.961-2.11 5.728-5.373 5.291-3.982-.534-6.188-11.359-1.919-12.475zm10.698.825c.096 3.35.192 6.699 1.056 9.903.575 2.039 1.199 4.077 1.535 6.213.624 4.175-4.318 4.854-7.244 5.097-4.654.389-9.26-1.553-13.289-3.689-3.502-1.845-3.742-2.427-2.35-5.971.959-2.427 1.918-4.806 2.878-7.233.767-1.941 1.487-3.98 2.159-5.97.527.097 1.151.097 1.679.194.48.097.96.194 1.39.291-1.534.825-1.918 3.447-1.966 5.097-.096 3.301 1.103 7.233 4.126 8.883 3.022 1.651 6.092-.728 7.34-3.398.96-2.087 1.63-6.553.192-8.931.863-.098 1.679-.195 2.494-.486zm15.975-4.709c-1.487 1.214-3.693 1.02-4.413-.873-.672-1.748.336-3.058 1.727-3.738.096 0 .192-.049.288-.049.096 0 .24 0 .336.049 0 .291-.048.534-.048.874 0 .29.431.29.479 0 .048-.292.096-.486.144-.728.432.145.864.388 1.2.68 1.295.97 1.631 2.718.287 3.785zM156.522 43.01c-.623.728-.863 1.796-1.103 2.718-.336 1.165-.624 2.379-.912 3.544-.096.485.576.63.72.194.336-1.02.672-2.088 1.007-3.107.336-.97.912-1.893 1.104-2.913.048-.436-.48-.873-.816-.436zM136.997 38.689c-.192-.194-.576-.194-.72.097-.431.874 0 2.427.048 3.35.096 1.553.048 3.106.144 4.66.048.582.912.582.912 0 .096-1.554.096-3.107.048-4.66.048-.923.336-2.767-.432-3.447zM153.164 70.436c-.192-.534-1.007-.631-1.151 0-1.104 4.514-7.148 3.544-10.65 2.718-2.255-.534-4.462-1.504-6.237-3.01-2.015-1.65-1.967-3.397-2.303-5.679-.048-.388-.575-.34-.719-.097-3.406 5.388 6.044 9.563 9.594 10.388 2.543.631 13.433 1.31 11.466-4.32zM140.691 58.203c-.672 1.602-1.151 3.398-1.679 5.048-.192.68.815.923 1.055.291.576-1.602 1.392-3.203 1.823-4.854.144-.68-.911-1.165-1.199-.485zM146.832 59.417c-.144-.291-.48-.34-.768-.194-.528.29-.576 1.116-.72 1.65-.287 1.117-.623 2.282-.671 3.447-.048.63.911.728 1.103.145.288-1.068.528-2.184.864-3.252.144-.583.479-1.214.192-1.796z"/><path d="M163.766 53.203c.432-.436-.144-1.262-.671-.873-1.296.873-2.543 2.184-3.55 3.592a15.47 15.47 0 0 0-1.727-2.621c-.144-.146-.288-.292-.432-.486.719-.68 1.343-1.408 2.015-2.136.575-.68 1.631-1.456 1.871-2.33.096-.34-.24-.728-.624-.63-.816.242-1.343 1.261-1.871 1.94-.672.875-1.295 1.7-2.015 2.525-2.111-2.184-4.701-4.029-7.484-5 .384-.874.672-1.747.96-2.67.383-1.116.959-2.281 1.055-3.446.048-.486-.672-.631-.911-.243-.528.874-.672 2.039-.96 3.058-.288 1.02-.624 2.04-.911 3.107a13.616 13.616 0 0 0-4.654-.534c.048-1.068.096-2.136.192-3.204.048-.68.192-1.359.336-1.99.096-.437.336-.825.336-1.262 0-.34-.384-.631-.72-.389-.767.535-.863 1.7-.959 2.573a27.643 27.643 0 0 0-.096 4.466c-.576.097-1.152.194-1.727.389-.384.145-.528.436-.528.776-8.779.923-13.817 10.146-13.673 19.078-1.055.436-2.254.825-3.262.29-.719-.388-1.151-1.164-1.199-1.941-.048-.728.144-1.553.719-1.99.96-.728 2.159-.146 3.119.291.671.34 1.199-.582.575-1.02-1.247-.873-2.926-1.407-4.317-.582-1.104.631-1.583 1.99-1.583 3.204.048 1.31.719 2.573 1.823 3.252 1.247.728 2.83.583 4.173.049.336 4.272 1.919 8.35 4.894 11.213-1.775-.485-4.654 6.699-5.517 8.883-1.823.34-3.598.729-5.373 1.068-1.152.243-3.023.195-4.27.631-.288-.776-.72-1.456-1.391-1.941-.912-.68-2.111-.68-3.167-.291-.143-.146-.335-.195-.527-.098-1.679.874-3.31 2.67-2.303 4.66.768 1.554 2.783 2.233 4.414 2.282 1.775 0 3.214-1.165 3.214-3.01v-.388c1.055.097 2.303-.291 3.166-.388 1.871-.243 3.79-.631 5.661-.971-2.543 6.456-4.893 14.174-2.878 20.97.623 2.039 1.727 3.641 3.166 4.757-1.104 3.01-1.152 6.311-2.159 9.369-1.775-1.65-4.414-2.67-6.572-1.408-3.359 1.942-.912 5.34 1.871 6.262 2.782.923 4.461-.437 5.517-2.718.335-.097.575-.437.335-.777 1.2-3.204 1.44-7.621 1.871-10.097 2.063 1.263 4.558 1.651 6.957 1.214.383 4.078 1.919 8.835 4.365 11.941 2.063 2.622 6.285 3.447 9.019 1.263 2.783-2.185 1.823-6.36-1.679-6.893-1.631-.243-3.31.388-4.461 1.504-.672.631-1.584 2.088-1.919 3.301-2.495-2.718-3.694-8.058-4.27-11.359a11.677 11.677 0 0 0 4.27-2.233c6.284-5.291 6.236-13.397 4.845-21.164 2.543 1.747 5.181 3.35 7.724 5l.096.097c-.48.776-.624 1.796-.576 2.718.192 2.67 2.351 4.417 4.941 3.398 3.119-1.262 4.462-4.563 2.255-7.33-1.727-2.136-5.613-2.621-6.764.243-2.303-2.427-5.181-4.272-7.964-6.068 0-.146-.096-.291-.24-.388-.575-2.816-1.295-5.534-1.823-8.01 4.174-.048 8.396-1.844 11.754-4.611 1.535 2.864 5.181 3.35 7.532.922.959-1.02 1.535-2.524 1.151-3.883-.24-.777-.767-1.311-1.391-1.796-.624-.486-1.727-1.069-2.495-.777.48-.825.912-1.7 1.248-2.524 1.631-4.32 2.11-9.466.335-13.787.432-.533.864-1.067 1.392-1.553.815-1.068 1.727-1.699 2.446-2.476zM115.745 91.99c-.144 1.165-1.344 1.408-2.303 1.31-1.056-.097-2.255-.582-2.831-1.553-.479-.776-.048-1.602.528-2.281.144.097.384.145.576 0 .959-.534 2.35-.777 3.262 0 .624.582.911 1.747.768 2.524zm7.723 34.659c-.431.923-1.007 1.699-2.015 1.991-1.391.388-4.365-1.214-4.173-2.864.192-1.554 3.022-1.311 3.886-.971.575.242 1.055.631 1.583.971.288.194.527.388.815.582-.048.097-.096.194-.096.291zm17.127 2.767c.24-.631.528-1.262.816-1.844.767-1.554 1.871-2.282 3.55-2.427 2.398-.195 3.406 2.378 1.775 4.126-.96 1.019-2.783 1.116-4.078 1.019-.816-.049-1.487-.291-2.159-.728.096 0 .096-.049.096-.146zm12.473-29.95c.432-.777 1.104-.777 1.871-1.02.24-.048.24-.34.048-.485-.336-.243-.767-.34-1.199-.243a2.185 2.185 0 0 1 1.295-.437c.96 0 1.823.583 2.447 1.262 1.823 1.942.431 4.32-1.727 5.243-1.679.679-2.879-.486-3.119-2.136-.048-.777.048-1.553.384-2.184zm-10.938-8.35c-.432.243-.384.971 0 1.262.096.049.192.146.288.195 1.295 6.601 1.727 13.203-2.255 19.125-1.391 2.136-3.358 3.544-5.469 4.175-.24-.146-.575-.049-.719.194-2.399.437-4.99-.146-7.196-1.99-2.207-1.845-2.783-5-2.927-7.718-.288-5.777 1.775-11.748 3.886-17.039.912-2.281 1.967-4.466 3.118-6.65.192-.34 1.104-2.524 1.392-2.67.095-.049.095-.146.095-.194a17.55 17.55 0 0 0 2.351 1.747 12.72 12.72 0 0 0 5.613 1.796c.576 2.525 1.247 5.146 1.823 7.767zm17.798-16.019c.432.243.816.68 1.008 1.165.336.922-.144 1.893-.72 2.524-.719.826-1.727 1.311-2.782 1.311-1.343 0-2.303-.874-3.071-1.893 1.44-1.262 2.687-2.767 3.694-4.32 0 .048 0 .097.048.145.384.631 1.248.68 1.823 1.068zm-3.79-1.068c-4.797 7.33-16.694 10.825-23.363 4.126-2.83-2.815-4.173-6.602-4.365-10.485.287-.291.24-.68-.048-.922 0-8.883 6.092-18.106 15.399-17.96.528 0 .624-.535.432-.875 5.469-.388 10.794 3.593 13.673 8.058 3.502 5.486 1.583 13.01-1.728 18.058zM56.06 118.15c-.033-2.083-1.89-3.615-3.757-2.607-1.531.843-2.67 2.713-3.19 4.492-2.43-2.747-4.085-5.937-5.827-9.168 2.574-2.014 3.994-5.241 3.441-8.78-.354-2.07-1.246-4.119-2.43-5.982 2.221.106 4.869-1.237 6.566-2.217 1.131-.654 2.837-2.372 3.063-3.966 1.767.06 3.43-1.202 3.143-3.188-.163-1.188-1.038-2.433-2.123-3.085.02-.044-.005-.108-.093-.148-.864-.552-1.64-.586-2.294-.299l-.57.218c-.147.093-.205.226-.24.422-1.33 1.465-1.554 4.492.566 5.667.07.561.095 1.103-.368 1.795-.687.961-1.837 1.659-2.886 2.243a21.322 21.322 0 0 1-5.204 1.88c-1.639-2.387-3.785-4.58-5.847-6.366 3.107-.71 6.004-2.26 8.1-4.385.121-.156.223-.27.39-.406 1.84.73 3.8-.13 4.48-2.155.667-1.873-.323-4.178-2.212-4.558-.028-5.21-3.36-10.7-8.36-11.803a.692.692 0 0 0-.512.086 3.43 3.43 0 0 0-.596-.324c.672-.809 1.3-1.637 1.929-2.466.302-.446.75-.985.573-1.542-.171-.45-.63-.605-1.03-.415-.273.141-.385.515-.224.747l-.175.398c-.233.53-.618 1.045-.94 1.536-.32.49-.686.96-1.027 1.496a13.906 13.906 0 0 0-3.338-.084c.32-.968.553-1.976.81-2.92.19-.55.57-1.174.305-1.771-.142-.277-.47-.372-.698-.21-.522.346-.55 1.129-.632 1.675-.252 1.052-.543 2.193-.493 3.276-1.712.178-3.415.572-4.86.977-.17.028-.36.101-.55.174-.036-.759-.496-1.87-.619-2.19-.436-1.047-.891-2.049-1.283-3.075-.147-.385-.25-.75-.397-1.135.36-.102.53-.608.174-.876-.494-.436-1.187-.538-1.498.169-.312.707.251 1.705.496 2.347.46 1.11 1.004 2.153 1.484 3.219.216.469.407.874.578 1.323.074.193.147.385.24.533-6.453 2.322-8.477 9.199-5.803 15.345-.063.024-.107.005-.17.029-.596.154-1.161.48-1.546.995-.775.922-.797 2.29-.444 3.405.329 1.051 1.233 1.992 2.336 2.121.694.103 1.328-.14 1.893-.466.483-.258 1.063-.738 1.492-1.233 1.52 1.22 3.341 1.995 5.23 2.375-.608.784-1.143 1.76-1.61 2.822-3.802.13-13.945 5.444-11.464 9.753-.824.793-1.168 2.174-.805 3.506.727 2.663 3.628 3.98 6.076 2.97 2.259-.937 2.635-3.471 1.51-5.467-.514-.87-1.364-1.574-2.365-1.816a3.305 3.305 0 0 0-1.889.097c-.434-.091-.82-.054-1.206-.017-.61-3.883 6.081-6.627 9.642-7.768-1.802 5.652-1.35 13.494 2.253 17.41-1.815 3.525-3.102 7.29-4.39 11.054-2.057-1.676-5.609-.795-5.589 2.396-.022 4.604 6.247 2.941 7.585.26.355-.687-.637-1.19-1.129-.671-.39.406-.78.813-1.213 1.199-2.69 2.279-2.17-5.493-.066-1.408.26.489 1.153.735 1.357.032a146.403 146.403 0 0 1 2.006-6.355c.53-1.563 2.101-4.297 2.294-5.694 1.677 1.344 3.815 1.996 6.587 1.451 1.258-.224 2.42-.705 3.468-1.29l-.087.916c-.039.088.093.148.132.059l.447-1.016c1.407 3.873 3.63 7.693 6.538 10.551.044.02.068.084.112.104.391.549 1.807.449 2.294.299 2.205-.697 4.492-1.939 4.459-4.5zm-2.414-29.628a2.347 2.347 0 0 0-.855-.813c-.2-.144-.41-.027-.532.13-.773-.881-.585-2.387.19-3.308.605.063 1.142.041 1.801.34.64.344 1.056.957 1.301 1.598.564 1.476-.694 2.178-1.905 2.053zM19.53 102.418c.117.212.361.376.576.367-.063.502-.106.96-.232 1.486.17-.506.36-1.057.53-1.563.487-.15.926-.428 1.512-.321.605.063 1.143.519 1.51 1.003.87 1.138.79 2.639-.463 3.45-1.629 1.064-3.636-.007-4.38-1.67-.29-.662-.37-1.44-.058-2.148.058-.132.16-.245.22-.378.307.14.624.019.785-.226zM49.508 79.59c.391.548.363 1.331.242 1.966-.295 1.51-1.48 1.927-2.672 1.757.843-1.315 1.353-2.833 1.56-4.383.327.095.616.279.87.66zm-25.656 7.13c-.312.229-.756.399-1.078.412-.668-.039-1.123-.563-1.393-1.269s-.266-1.553.158-2.156c.263-.358.594-.632.975-.777l.19-.073c.235.425.47.85.749 1.294.416.614.807 1.162 1.325 1.663-.331.274-.594.632-.926.905zm.805-3.507c-.206-.252-.391-.549-.577-.845.02-.045.039-.089-.05-.129l-.043-.02c-3.308-5.426-.982-12.75 5.155-14.472.532-.13 5.606-1.115 8.52-1.383-.093.329.327.573.551.303.103-.113.161-.245.263-.358.43-.017.796-.01.991.026-.004.369.143.754.621.865 7.065 1.562 8.73 11.44 4.746 16.42-2.012 2.534-5.045 3.915-8.237 4.217a.604.604 0 0 0-.77.074c-4.207.212-8.651-1.433-11.17-4.698zm14.515 28.014c-2.746 1.088-4.895.218-6.46-1.499-.048-.129-.141-.277-.273-.337-1.413-1.702-2.364-4.096-2.787-6.25-.925-4.61-.143-9.983 2.648-13.807 1.21.125 2.48.117 3.763-.043 6.563 5.578 15.044 17.224 3.11 21.936zm12.778 9.672a6.108 6.108 0 0 1-1.532.365c.505-1.627 2.699-6.253 3.884-3.912.95 1.916-.938 2.969-2.352 3.547z"/><path d="M31.037 65.307c.496-1.845.268-3.965.245-5.833.01-.261-.323-.465-.577-.368-.737.355-.52 1.303-.466 2.017.149 1.342.278 2.727.148 4.101-.067.394.52.501.65.083zM44.005 78.073c-.03-.65-.912-.68-1.145-.15-1.671 3.32-4.776 5.828-8.69 5.27-2.184-.303-3.873-1.97-5.153-3.61-.502-.651-.898-1.307-1.319-2.027-.556-.889-.888-1.092.35-.318-.057.132-.028.305.128.428.38.332.867-.294.467-.582-.156-.124-.37-.115-.492.042-.488-.328-1.307-.859-1.395-.898-.112-.104-.322.013-.273.14.621 4.572 4.657 8.203 9.136 8.436 3.163.111 8.597-3.141 8.386-6.731z"/><path d="M33.59 75.45c-.044-.02-.346-.051-.258-.011l-.044-.02.019-.044a.374.374 0 0 1 .01-.261c-.006-.109.004-.37.038-.567.043-.457.539-1.824.089-2.24-.142-.277-.46-.156-.62.09l-.02.044c-.16.245-.253.575-.306.816a9.822 9.822 0 0 0-.398 1.623c-.063.502-.037 1.044.261 1.445.436.569 1.227.45 1.656-.045.16-.245-.08-.779-.427-.83zM37.214 74.858l-.017-1.759-.03-.65c-.006-.109-.01-.217-.08-.302l-.043-.02-.05-.128c-.136-.168-.376-.224-.541-.087a.364.364 0 0 0-.122.157c-.02.044-.142.201-.142.201-.039.089-.053.242-.092.33-.082.546-.1 1.069-.12 1.59a49.792 49.792 0 0 1-.075 1.612c0 .477-.12 1.112.407 1.352 1.252.515.911-1.71.905-2.296zM203.118 86.896c-2.417-2.064-7.554-2.37-8.045 1.605-1.057-2.216-2.908-3.86-5.174-5.312-.415-.267-5.401-3.172-5.665-1.49-1.209-.688-2.53-.688-3.815-.191 1.285-4.395-1.624-7.95-6.307-7.987-1.85 0-4.003.65-5.136 2.254-1.36 1.95-.642 4.242.529 6.077a.596.596 0 0 0 1.019 0 6.645 6.645 0 0 1 1.7-1.988c-.227.88-.302 1.758-.076 2.752.114.459.642.535.944.267 1.436-1.222 3.626-2.828 4.684-.343.075.229.264.305.415.305-2.493 2.064-4.608 5.77-5.476 9.592-1.095-.496-2.531-.802-3.588-.114-.869.573-1.058 1.605-.907 2.598.114.88.68 1.835 1.436 2.255.415.23.868.306 1.321.191.416-.076 1.209-.535 1.209-.993 0-.191-.038-.23.076-.383 0 0 0-.038.037-.038 0 3.516 1.284 6.726 4.608 8.561-1.36 2.598-2.681 5.197-4.079 7.719-1.851-1.184-4.154-1.605-6.156-2.484-1.133-.497-2.228-1.146-2.946-2.178-1.02-1.414-.34-2.905-.038-4.395.756 0 1.549-.306 2.04-.917.944-1.108.415-2.866-.605-3.745-.566-.497-1.321-.65-2.039-.459-.038-.191-.227-.306-.416-.191-.377.23-.642.573-.83.917a2.345 2.345 0 0 0-.567.994c-.075.229.038.382.189.497 0 .611.113 1.223.34 1.758.189.42.491.687.831.879-1.549 2.522-.378 5.464 1.888 6.993 2.304 1.567 5.25 2.102 7.894 2.981-2.757 4.892-5.892 9.401-10.613 12.917-.302.229-.453.688-.113.955 2.341 2.026 4.947 3.478 7.704 4.472-1.057 2.178-2.115 4.394-2.87 6.726-2.115-1.071-5.325-2.37-6.572-.268-1.85 3.134 4.381 4.318 6.043 4.815.264.077.68-.114.718-.42.113-.879.34-1.758.566-2.599.113 0 .227 0 .34-.038.378-.077.453-.688.113-.879-.037-.038-.113-.038-.151-.076.756-2.37 1.775-4.625 2.493-6.994 1.662.573 3.399.994 5.136 1.299l-.037.039c-.756.993-.756 2.675-.982 3.859-.416 2.179-.756 4.319-1.209 6.497-.075.306.076.612.378.688 2.379.802 8.762 2.408 10.046-.764.756-1.873-1.624-3.019-2.984-3.363-1.775-.421-3.927-.497-5.74-.039.151-.917.302-1.834.415-2.751.189-1.185.718-2.866.34-4.051 3.55.611 7.214.726 10.802.65.34 0 .566-.268.604-.612.189-2.293-.453-4.28-1.095-6.458-.869-2.981-.831-6.229-1.095-9.325-.303-3.401-.265-7.834-1.549-11.083 2.795 0 5.439-.917 7.591-2.484 1.209 1.032 3.097 1.07 4.193-.191.491-.573.755-1.375.566-2.14-.189-.688-.755-1.108-1.397-1.3a12.695 12.695 0 0 0 1.737-4.776c.529.076.718-.65.302-.955-.075-.039-.113-.077-.189-.115.038-.459.038-.956.038-1.414a10.532 10.532 0 0 0-.869-3.898c.114.038.303 0 .303-.153.831-3.592 5.552-2.37 7.44-.42 2.153 2.254 1.851 7.07.302 9.783-.755-2.064-1.624-4.09-2.568-6.115-.227-.458-.907-.305-1.02.115a5.314 5.314 0 0 1-.68 1.567c-.377-2.102-1.284-5.541-3.172-4.815-.491.19-.378.84.113.917 1.473.19 1.964 4.012 2.115 5.197.076.497.567.726.944.382a5.11 5.11 0 0 0 1.247-1.643 94.274 94.274 0 0 1 2.304 5.694c.113.344.642.612.906.23 2.833-3.21 3.21-9.746-.189-12.65zm-30.743 8.713c-.076.115-.151.23-.227.306-.151.153-.302 0-.453.115-.151.114-.34.229-.491.305-.189.077-.302.115-.415.115H170.675c-.037 0-.151-.038-.189-.038-.566-.268-.868-.84-1.019-1.49-.076-.268-.076-.688-.038-.918.076-.306.227-.535.34-.65.302-.229.604-.267 1.057-.267.642.038 1.209.268 1.813.459-.189.65-.226 1.375-.264 2.063zm-9.707 5.771c-.226-.42-.302-.956-.264-1.49.604-.574 1.133-1.223 2.04-.612.679.459.982 1.529.604 2.217-.567.993-1.926.802-2.38-.115zm3.135 39.821c-.755-.229-1.473-.421-2.228-.65a11.504 11.504 0 0 1-1.851-.841c-1.057-.611-.906-1.949.378-1.987 1.36-.038 2.757 1.07 4.079 1.567-.113.65-.264 1.261-.378 1.911zm8.876-.268c1.171-.344 2.455-.344 3.663-.305.68.038 5.779.955 3.739 2.522-1.737 1.337-5.665.382-7.818-.268l.34-1.949h.076zm-1.511-59.54c-.038-.955.264-1.72.718-2.713.226-.535-.265-1.109-.794-.803-1.208.65-2.228 1.49-3.021 2.56-.68-1.337-1.02-2.866-.038-4.127.944-1.184 2.644-1.605 4.079-1.643 4.306-.153 6.459 3.21 5.552 7.185-.264.152-.566.343-.831.535a.786.786 0 0 0 0-.42c-1.246-2.867-3.701-1.988-5.665-.574zm11.406 1.338c-.189.764-.038 1.643.264 2.522-1.322 2.79-6.798 3.057-9.593 2.942 2.002-4.127 5.439-7.108 9.329-5.464zm-1.02 34.394c.453 4.471.944 8.446 2.04 12.802.793 3.096-1.058 2.408-3.286 2.37a43.87 43.87 0 0 1-7.025-.688c-4.419-.726-8.611-2.446-12.124-5.274 6.988-5.541 10.953-13.376 14.428-21.516a14.11 14.11 0 0 0 4.381 1.185c0 .076 0 .191.038.306 1.322 2.904 1.246 7.605 1.548 10.815zm11.066-15.516c.114.421-.151.917-.415 1.223-.378.42-.944.65-1.511.65-.453 0-.831-.191-1.171-.421a14.053 14.053 0 0 0 2.078-2.178c.415.077.868.229 1.019.726zm-.264-4.471c-.642 2.178-2.002 3.974-3.739 5.274-.189-.23-.604.038-.453.344-4.344 2.904-10.802 3.019-14.617-.765-2.719-2.675-2.492-8.445-.566-13.031 1.548.382 8.422-.268 10.575-2.179.415.803.869 1.567 1.209 2.102 1.661 2.79 5.023 4.74 8.044 5.924a21.088 21.088 0 0 1-.453 2.33zm-4.759-6.764c-1.02-.841-2.568-2.675-3.437-4.586.076-.382 0-.803-.34-1.261-.037-.077-.113-.115-.189-.153-.188-.688-.226-1.376-.075-1.987 1.246.688 6.043 3.4 6.572 3.821 2.001 1.644 2.757 4.433 2.719 7.147-1.737-.956-3.664-1.644-5.25-2.981z"/><path d="M189.068 97.138c-1.548 3.21-4.154 3.821-7.516 3.133-1.435-.305-2.87-.917-4.041-1.872-1.208-.994-1.019-1.95-1.208-3.325 0-.114-.189-.191-.265-.114-3.21 2.407 3.135 5.847 4.759 6.343 3.059.918 9.14.497 9.253-3.898-.037-.496-.755-.726-.982-.267z"/><path d="M182.346 92.438c-.68 0-.529.955-.529 1.375-.038.65-.113 1.338-.038 1.987.038.459.68.459.718 0 .075-.65.151-1.299.226-1.987.038-.42.34-1.376-.377-1.376zM184.989 92.285c-.075-.344-.491-.42-.717-.191-.378.343-.34 1.07-.378 1.528-.075.65-.151 1.3-.075 1.95.037.305.566.458.604.076l.227-1.72c.113-.497.453-1.147.339-1.643zM197.377 104.208c-1.397 0-3.739 1.223-3.588 2.904 0 .268.303.459.529.421.038.191.151.344.227.497 0 0-.038 0-.038.038-1.246 1.681-1.775 3.554-3.399 5.006-.416.382-5.59 3.057-5.703 1.987 0-.191-.265-.191-.302 0 0 .115-.038.268-.038.383a.366.366 0 0 0 .151.382c1.511 1.146 4.834-.726 6.118-1.605 1.7-1.147 3.475-3.44 3.891-5.542 1.321.879 3.588.726 4.343-1.299.566-1.643-.529-3.172-2.191-3.172zm-.831 4.013c-1.019-.077-1.397-.765-1.435-1.605.114-.115.189-.23.302-.344.189.114.378.267.529.458.038.038.113-.038.076-.076-.151-.191-.265-.382-.416-.573a3.095 3.095 0 0 1 1.096-.65c1.057-.344 1.926.038 1.888 1.223-.038 1.108-1.095 1.643-2.04 1.567zM205.687 11.01c-1.049-3.583-2.405-7.565-5.203-10.13-1.705-1.593-3.628-.885-4.634 1.017-1.267 2.433-.918 5.618 0 8.272-2.492-1.327-5.158-2.344-7.869-.973-3.759 1.902-.743 6.149 1.312 7.741 2.535 1.99 6.339 1.725 9.312 1.725 1.748 0 4.896.354 6.513-.796.175.177.438.265.656.089 1.924-1.46.437-5.176-.087-6.945zm-.656 6.148a.822.822 0 0 0-.087.31c-2.143-.929-5.727-.088-7.913-.133-2.011-.044-4.328-.088-6.208-1.017a8.669 8.669 0 0 1-1.967-1.593c-.263-4.07.918-5.618 3.497-4.6 1.618.398 3.104 1.327 4.547 2.167.612.354 1.224-.31.918-.928-1.224-2.433-1.618-5.088-1.137-7.742.874-4.512 4.547-.22 5.465 1.858 1.136 2.389 4.546 9.068 2.885 11.678z"/></g><defs><clipPath id="a"><path fill="#fff" d="M0 0h206.73v145H0z"/></clipPath></defs></svg>