<svg width="19" height="19" viewBox="0 0 19 19" fill="none" xmlns="http://www.w3.org/2000/svg">
<path d="M8 16C9.77498 15.9996 11.4988 15.4054 12.897 14.312L17.293 18.708L18.707 17.294L14.311 12.898C15.405 11.4996 15.9996 9.77542 16 7.99998C16 3.58898 12.411 -1.52588e-05 8 -1.52588e-05C3.589 -1.52588e-05 0 3.58898 0 7.99998C0 12.411 3.589 16 8 16ZM8 1.99998C11.309 1.99998 14 4.69098 14 7.99998C14 11.309 11.309 14 8 14C4.691 14 2 11.309 2 7.99998C2 4.69098 4.691 1.99998 8 1.99998Z" fill="white"/>
</svg>
