<svg width="167" height="36" viewBox="0 0 167 36" fill="none" xmlns="http://www.w3.org/2000/svg">
<g clip-path="url(#clip0_5_41162)">
<path d="M9.6939 15.7561C9.33575 16.0181 8.88209 16.1847 8.33292 16.3038C7.78376 16.4228 7.23459 16.4705 6.66155 16.4705C5.96913 16.4705 5.30058 16.3514 4.67978 16.1371C4.05899 15.9228 3.50982 15.5656 3.03229 15.0894C2.55475 14.6132 2.17272 13.9942 1.8862 13.2322C1.59968 12.4703 1.45642 11.5417 1.45642 10.4464C1.45642 9.30348 1.62356 8.35105 1.93396 7.58912C2.24435 6.82718 2.65026 6.20811 3.15167 5.7319C3.65308 5.25569 4.22612 4.92234 4.82304 4.73185C5.44384 4.51756 6.06463 4.42232 6.68543 4.42232C7.35398 4.42232 7.90314 4.46994 8.3568 4.56518C8.81046 4.66042 9.19249 4.75566 9.50288 4.87472L9.04922 6.80337C8.78658 6.68432 8.50006 6.58908 8.14191 6.54145C7.78376 6.49383 7.37785 6.47003 6.87644 6.47003C5.96913 6.47003 5.22895 6.80337 4.6559 7.44626C4.10674 8.08914 3.82022 9.11299 3.82022 10.4702C3.82022 11.0655 3.89185 11.6131 4.01123 12.1131C4.15449 12.6131 4.34551 13.0179 4.60815 13.3751C4.8708 13.7322 5.20507 13.9942 5.61097 14.1846C6.01688 14.3751 6.47054 14.4704 7.0197 14.4704C7.52111 14.4704 7.92702 14.4227 8.28517 14.3275C8.61944 14.2323 8.92984 14.1132 9.19249 13.9465L9.6939 15.7561Z" fill="#5394AD"/>
<path d="M11.9384 4.66042H18.8149V6.68431H14.2066V9.3749H18.4089V11.3988H14.2066V14.2323H18.9104V16.2561H11.9384V4.66042Z" fill="#B7C136"/>
<path d="M30.4189 10.2321L30.6577 7.92246H30.5622L29.8459 9.77968L27.3866 14.0894H26.6464L24.0677 9.75587L23.3275 7.92246H23.2559L23.5902 10.2083V16.2323H21.4413V4.66042H23.5186L26.6225 9.94636L27.1717 11.2797H27.2433L27.7447 9.92254L30.6816 4.66042H32.735V16.2323H30.4667V10.2321H30.4189Z" fill="#E04C38"/>
<path d="M35.5286 4.66042H42.4051V6.68431H37.7969V9.3749H41.9753V11.3988H37.773V14.2323H42.4767V16.2561H35.5286V4.66042Z" fill="#5394AD"/>
<path d="M51.7647 9.8035L51.908 8.30343H51.8363L51.0484 9.85112L46.7267 16.2085H45.0076V4.66042H47.2759V10.9702L47.1087 12.5179H47.2042L48.016 10.9226L52.3377 4.66042H54.033V16.2323H51.7647V9.8035ZM48.5413 1.77935C48.5891 2.13651 48.7085 2.37462 48.9234 2.54129C49.1383 2.70796 49.4248 2.7794 49.759 2.7794C50.4992 2.7794 50.9051 2.44605 50.9768 1.80316L52.8153 2.08889C52.6959 2.7794 52.3855 3.27942 51.8602 3.61276C51.3349 3.94611 50.6425 4.08897 49.7352 4.08897C49.2815 4.08897 48.8756 4.06516 48.4936 3.99373C48.1116 3.9223 47.7773 3.82705 47.5146 3.66038C47.252 3.49371 46.9893 3.30322 46.8222 3.06512C46.6312 2.8032 46.5357 2.49366 46.4879 2.1127L48.5413 1.77935Z" fill="#FFBE3B"/>
<path d="M63.3926 11.375H59.1426V16.2085H56.8743V4.66042H59.1426V9.3749H63.3926V4.66042H65.6609V16.2323H63.3926V11.375Z" fill="#CC487E"/>
<path d="M68.5023 4.66042H70.7706V8.80345C70.89 8.77964 71.081 8.75583 71.3436 8.73202C71.6063 8.70821 71.8689 8.6844 72.1316 8.6844C72.6807 8.6844 73.206 8.73202 73.7074 8.85107C74.2089 8.97013 74.6386 9.16061 75.0207 9.44634C75.4027 9.73206 75.6892 10.113 75.928 10.5892C76.1429 11.0655 76.2623 11.6607 76.2623 12.3988C76.2623 13.7322 75.8802 14.7561 75.0923 15.4228C74.3044 16.0895 73.1344 16.4228 71.5824 16.4228C71.4392 16.4228 71.2243 16.4228 70.9855 16.4228C70.7467 16.4228 70.4841 16.399 70.1976 16.3752C69.911 16.3514 69.6245 16.3276 69.338 16.3038C69.0515 16.28 68.765 16.2323 68.5023 16.1609V4.66042ZM71.7496 14.3751C72.3704 14.3751 72.8956 14.2323 73.2777 13.9465C73.6597 13.6608 73.8746 13.1608 73.8746 12.4941C73.8746 12.1369 73.8268 11.8274 73.7074 11.5893C73.5881 11.3512 73.4448 11.1845 73.2538 11.0416C73.0628 10.8988 72.8479 10.8273 72.5852 10.7797C72.3226 10.7321 72.06 10.7083 71.7496 10.7083C71.6063 10.7083 71.4153 10.7321 71.2004 10.7559C70.9855 10.7797 70.8422 10.8035 70.7467 10.8512V14.3037C70.8661 14.3275 71.0094 14.3513 71.1765 14.3751C71.3914 14.3751 71.5585 14.3751 71.7496 14.3751ZM77.4561 4.66042H79.7244V16.2323H77.4561V4.66042Z" fill="#E04C38"/>
<path d="M89.3228 9.8035L89.4661 8.30343H89.3944L88.6065 9.85112L84.2848 16.2085H82.5657V4.66042H84.834V10.9702L84.6668 12.5179H84.7623L85.5741 10.9226L89.8958 4.66042H91.5911V16.2323H89.3228V9.8035ZM86.0994 1.77935C86.1472 2.13651 86.2666 2.37462 86.4815 2.54129C86.6963 2.70796 86.9829 2.7794 87.3171 2.7794C88.0573 2.7794 88.4632 2.44605 88.5349 1.80316L90.3734 2.08889C90.254 2.7794 89.9436 3.27942 89.4183 3.61276C88.893 3.94611 88.2006 4.08897 87.2933 4.08897C86.8396 4.08897 86.4337 4.06516 86.0517 3.99373C85.6697 3.9223 85.3354 3.82705 85.0727 3.66038C84.7862 3.51752 84.5474 3.30322 84.3803 3.06512C84.1893 2.8032 84.0938 2.49366 84.046 2.1127L86.0994 1.77935Z" fill="#B7C136"/>
<path d="M105.798 6.6605H101.739V16.2085H99.4705V4.66042H108.066V16.2323H105.798V6.6605Z" fill="#FFBE3B"/>
<path d="M110.525 10.4464C110.525 8.51773 110.955 7.04148 111.791 5.99381C112.65 4.94615 113.868 4.42232 115.444 4.42232C116.28 4.42232 116.996 4.56518 117.617 4.8509C118.238 5.13663 118.739 5.54141 119.169 6.06524C119.575 6.58907 119.885 7.23196 120.076 7.97008C120.267 8.70821 120.387 9.54158 120.387 10.4226C120.387 12.3512 119.957 13.8275 119.097 14.8751C118.238 15.9228 117.02 16.4466 115.468 16.4466C114.632 16.4466 113.892 16.3038 113.271 16.018C112.65 15.7323 112.149 15.3275 111.743 14.8037C111.337 14.2799 111.027 13.637 110.836 12.8989C110.621 12.1607 110.525 11.3512 110.525 10.4464ZM112.913 10.4464C112.913 11.0416 112.961 11.5655 113.056 12.0655C113.152 12.5655 113.319 12.9703 113.51 13.3275C113.725 13.6846 113.988 13.9465 114.298 14.1608C114.608 14.3513 114.99 14.4704 115.444 14.4704C116.256 14.4704 116.877 14.1608 117.306 13.5179C117.76 12.8989 117.975 11.875 117.975 10.4702C117.975 9.89874 117.927 9.3749 117.832 8.89869C117.736 8.42248 117.593 7.9939 117.402 7.63674C117.211 7.27958 116.948 6.99385 116.614 6.77956C116.28 6.56526 115.898 6.47002 115.444 6.47002C114.632 6.47002 114.011 6.80337 113.582 7.44626C113.128 8.04152 112.913 9.06537 112.913 10.4464Z" fill="#5394AD"/>
<path d="M122.822 4.77947C123.276 4.68423 123.801 4.6128 124.35 4.56518C124.899 4.51756 125.472 4.49374 126.021 4.49374C126.594 4.49374 127.167 4.54137 127.764 4.63661C128.337 4.73185 128.863 4.92233 129.34 5.20806C129.794 5.49379 130.176 5.87476 130.486 6.37478C130.773 6.8748 130.916 7.54149 130.916 8.32724C130.916 9.06537 130.797 9.66063 130.534 10.1607C130.271 10.6607 129.937 11.0655 129.531 11.3988C129.101 11.7083 128.624 11.9464 128.099 12.0893C127.573 12.2322 127 12.3036 126.427 12.3036C126.38 12.3036 126.284 12.3036 126.165 12.3036C126.045 12.3036 125.926 12.3036 125.783 12.3036C125.639 12.3036 125.52 12.2798 125.401 12.2798C125.281 12.2798 125.186 12.256 125.138 12.256V16.2323H122.87V4.77947H122.822ZM126.189 6.44621C125.974 6.44621 125.759 6.44621 125.568 6.47002C125.377 6.49383 125.21 6.51764 125.09 6.51764V10.2797C125.138 10.2797 125.21 10.3035 125.281 10.3035C125.377 10.3035 125.472 10.3273 125.568 10.3273C125.663 10.3273 125.759 10.3273 125.854 10.3273C125.95 10.3273 126.021 10.3273 126.069 10.3273C126.38 10.3273 126.666 10.3035 126.953 10.2559C127.239 10.2083 127.502 10.0892 127.741 9.94636C127.979 9.8035 128.146 9.5892 128.29 9.32729C128.433 9.06537 128.505 8.70821 128.505 8.27962C128.505 7.92247 128.433 7.61292 128.314 7.37482C128.17 7.13671 128.003 6.94623 127.788 6.80337C127.573 6.66051 127.335 6.56527 127.048 6.49383C126.762 6.4224 126.475 6.44621 126.189 6.44621Z" fill="#B7C136"/>
<path d="M141.231 6.6605H137.84V16.2085H135.572V6.6605H132.182V4.66042H141.231V6.6605V6.6605Z" fill="#CC487E"/>
<path d="M147.678 13.6608H144.12L143.236 16.2323H140.968L145.147 4.56516H146.818L150.996 16.2323H148.609L147.678 13.6608ZM144.693 11.8512H147.176L146.317 9.27965L145.958 7.47005H145.887L145.529 9.30346L144.693 11.8512Z" fill="#FFBE3B"/>
<path d="M158.446 6.66051H155.987C155.939 7.70817 155.891 8.66059 155.843 9.51777C155.796 10.3749 155.724 11.1607 155.629 11.8512C155.533 12.5417 155.414 13.1608 155.247 13.6846C155.103 14.2084 154.888 14.6608 154.65 15.0656C154.506 15.3275 154.315 15.518 154.124 15.6847C153.933 15.8514 153.718 15.9942 153.527 16.0895C153.313 16.1847 153.122 16.2561 152.907 16.3038C152.692 16.3514 152.501 16.3514 152.334 16.3514C152.071 16.3514 151.856 16.3276 151.689 16.3038C151.522 16.2561 151.355 16.2085 151.188 16.1371L151.426 14.1846C151.498 14.2084 151.57 14.2323 151.617 14.2323C151.689 14.2323 151.761 14.2561 151.808 14.2561C151.975 14.2561 152.166 14.2084 152.334 14.1132C152.501 14.018 152.644 13.8751 152.763 13.6608C152.93 13.4227 153.074 13.0655 153.193 12.5893C153.313 12.1131 153.432 11.5179 153.527 10.8035C153.623 10.0654 153.695 9.20823 153.742 8.20819C153.79 7.20815 153.838 6.01762 153.862 4.68423H160.714V16.2562H158.446V6.66051V6.66051Z" fill="#E04C38"/>
<path d="M5.6525 30.8267H2.10883L1.31296 33.0342H0.16272L3.39269 24.5759H4.36865L7.60443 33.0342H6.46L5.6525 30.8267ZM2.44577 29.9088H5.32137L3.88067 25.9527L2.44577 29.9088Z" fill="#5D5D5D"/>
<path d="M13.0391 24.5759L15.8044 31.4773L18.5696 24.5759H20.0161V33.0342H18.9007V29.7403L19.0053 26.185L16.2284 33.0342H15.3745L12.6034 26.2025L12.7138 29.7403V33.0342H11.5984V24.5759H13.0391Z" fill="#5D5D5D"/>
<path d="M27.7455 29.4847L29.6916 24.5759H30.9871L27.9953 31.6225C27.7939 32.0718 27.6061 32.3913 27.4318 32.5811C27.2575 32.767 27.0522 32.9103 26.816 33.011C26.5836 33.1078 26.2912 33.1562 25.9388 33.1562C25.6328 33.1562 25.4373 33.1388 25.3521 33.1039L25.3869 32.2209L25.9156 32.2441C26.3222 32.2441 26.6243 32.0485 26.8218 31.6574L26.967 31.3553L27.1878 30.8383L24.3064 24.5759H25.5554L27.7455 29.4847Z" fill="#5D5D5D"/>
<path d="M36.294 29.7229V33.0342H35.1786V24.5759H38.2982C39.2238 24.5759 39.948 24.8121 40.4709 25.2846C40.9976 25.7571 41.2609 26.3825 41.2609 27.161C41.2609 27.982 41.0034 28.6153 40.4883 29.0606C39.9771 29.5021 39.2432 29.7229 38.2866 29.7229H36.294ZM36.294 28.8108H38.2982C38.8946 28.8108 39.3516 28.6714 39.6692 28.3926C39.9868 28.1098 40.1455 27.7032 40.1455 27.1726C40.1455 26.6691 39.9868 26.2664 39.6692 25.9643C39.3516 25.6622 38.9159 25.5053 38.3621 25.4937H36.294V28.8108Z" fill="#5D5D5D"/>
<path d="M51.7613 30.3503C51.6568 31.2449 51.3256 31.9362 50.768 32.4242C50.2141 32.9083 49.4764 33.1504 48.5546 33.1504C47.5554 33.1504 46.7537 32.7921 46.1496 32.0757C45.5493 31.3592 45.2491 30.4006 45.2491 29.2001V28.3868C45.2491 27.6006 45.3885 26.9093 45.6674 26.3128C45.9501 25.7164 46.349 25.2594 46.8641 24.9418C47.3792 24.6204 47.9756 24.4597 48.6534 24.4597C49.5519 24.4597 50.2722 24.7114 50.8144 25.2149C51.3566 25.7145 51.6723 26.4077 51.7613 27.2946H50.6401C50.5433 26.6207 50.3323 26.1327 50.0069 25.8307C49.6855 25.5286 49.2343 25.3775 48.6534 25.3775C47.9408 25.3775 47.3811 25.6409 46.9745 26.1676C46.5717 26.6943 46.3703 27.4437 46.3703 28.4158V29.2349C46.3703 30.1528 46.562 30.8828 46.9454 31.425C47.3289 31.9672 47.8652 32.2383 48.5546 32.2383C49.1743 32.2383 49.6487 32.0989 49.9779 31.82C50.311 31.5373 50.5317 31.0474 50.6401 30.3503H51.7613Z" fill="#5D5D5D"/>
<path d="M58.3405 29.2349H57.3122V33.0342H56.1969V24.5759H57.3122V28.3054H58.1836L61.1406 24.5759H62.529L59.299 28.6772L62.7672 33.0342H61.402L58.3405 29.2349Z" fill="#5D5D5D"/>
<path d="M71.3157 30.8267H67.772L66.9761 33.0342H65.8259L69.0558 24.5759H70.0318L73.2676 33.0342H72.1232L71.3157 30.8267ZM68.1089 29.9088H70.9845L69.5438 25.9527L68.1089 29.9088Z" fill="#5D5D5D"/>
<path d="M81.6883 33.0342V29.7403H79.7364L77.9878 33.0342H76.7968L78.7604 29.4324C77.6682 29.0025 77.1222 28.2338 77.1222 27.1261C77.1222 26.3206 77.3855 25.6951 77.9122 25.2497C78.4428 24.8005 79.1787 24.5759 80.1198 24.5759H82.8095V33.0342H81.6883ZM78.2376 27.1261C78.2376 27.6374 78.3963 28.0479 78.7139 28.3577C79.0354 28.6675 79.4807 28.8244 80.0501 28.8283H81.6883V25.4937H80.1023C79.4982 25.4937 79.0354 25.637 78.7139 25.9236C78.3963 26.2102 78.2376 26.611 78.2376 27.1261Z" fill="#5D5D5D"/>
<path d="M100.005 29.0781C100.005 29.9069 99.8658 30.6311 99.5869 31.2507C99.3081 31.8665 98.9131 32.3371 98.4018 32.6624C97.8906 32.9877 97.2942 33.1504 96.6126 33.1504C95.9464 33.1504 95.3558 32.9877 94.8407 32.6624C94.3257 32.3332 93.9248 31.8665 93.6382 31.2624C93.3555 30.6543 93.2103 29.9514 93.2025 29.1536V28.5436C93.2025 27.7303 93.3439 27.0119 93.6266 26.3884C93.9093 25.7648 94.3082 25.2885 94.8233 24.9593C95.3423 24.6262 95.9348 24.4597 96.601 24.4597C97.2787 24.4597 97.8751 24.6243 98.3902 24.9535C98.9092 25.2788 99.3081 25.7532 99.5869 26.3767C99.8658 26.9964 100.005 27.7187 100.005 28.5436V29.0781ZM98.8956 28.532C98.8956 27.5289 98.6942 26.7602 98.2915 26.2257C97.8887 25.6874 97.3252 25.4182 96.601 25.4182C95.8961 25.4182 95.3403 25.6874 94.9337 26.2257C94.5309 26.7602 94.3237 27.5037 94.3121 28.4565V29.0781C94.3121 30.0501 94.5154 30.815 94.9221 31.3727C95.3326 31.9266 95.8961 32.2035 96.6126 32.2035C97.3329 32.2035 97.8906 31.942 98.2857 31.4192C98.6807 30.8925 98.884 30.1392 98.8956 29.1594V28.532Z" fill="#5D5D5D"/>
<path d="M109.692 25.4937H105.614V28.0266H107.717C108.6 28.0382 109.29 28.2648 109.785 28.7063C110.281 29.1478 110.529 29.7481 110.529 30.5071C110.529 31.2701 110.279 31.8781 109.779 32.3313C109.28 32.7844 108.598 33.0187 107.735 33.0342H104.493V24.5759H109.692V25.4937ZM105.614 28.9444V32.1221H107.653C108.207 32.1221 108.637 31.975 108.943 31.6806C109.253 31.3863 109.408 30.9913 109.408 30.4955C109.408 30.0192 109.259 29.6435 108.96 29.3685C108.666 29.0936 108.246 28.9522 107.7 28.9444H105.614Z" fill="#5D5D5D"/>
<path d="M121.291 24.5759V33.0342H120.175V25.4937H117.143L116.992 28.8457C116.934 29.9688 116.818 30.8131 116.643 31.3785C116.473 31.944 116.221 32.3603 115.888 32.6275C115.555 32.8909 115.11 33.0264 114.552 33.0342H114.186V32.1221L114.418 32.1105C114.778 32.0834 115.055 31.9672 115.249 31.762C115.443 31.5528 115.59 31.2217 115.691 30.7686C115.791 30.3154 115.863 29.6183 115.905 28.6772L116.08 24.5759H121.291Z" fill="#5D5D5D"/>
<path d="M130.949 30.8267H127.405L126.609 33.0342H125.459L128.689 24.5759H129.665L132.901 33.0342H131.756L130.949 30.8267ZM127.742 29.9088H130.618L129.177 25.9527L127.742 29.9088Z" fill="#5D5D5D"/>
<path d="M143.047 30.3503C142.942 31.2449 142.611 31.9362 142.053 32.4242C141.5 32.9083 140.762 33.1504 139.84 33.1504C138.841 33.1504 138.039 32.7921 137.435 32.0757C136.835 31.3592 136.535 30.4006 136.535 29.2001V28.3868C136.535 27.6006 136.674 26.9093 136.953 26.3128C137.236 25.7164 137.634 25.2594 138.15 24.9418C138.665 24.6204 139.261 24.4597 139.939 24.4597C140.837 24.4597 141.558 24.7114 142.1 25.2149C142.642 25.7145 142.958 26.4077 143.047 27.2946H141.926C141.829 26.6207 141.618 26.1327 141.292 25.8307C140.971 25.5286 140.52 25.3775 139.939 25.3775C139.226 25.3775 138.667 25.6409 138.26 26.1676C137.857 26.6943 137.656 27.4437 137.656 28.4158V29.2349C137.656 30.1528 137.847 30.8828 138.231 31.425C138.614 31.9672 139.151 32.2383 139.84 32.2383C140.46 32.2383 140.934 32.0989 141.263 31.82C141.596 31.5373 141.817 31.0474 141.926 30.3503H143.047Z" fill="#5D5D5D"/>
<path d="M153.1 25.4937H150.381V33.0342H149.272V25.4937H146.559V24.5759H153.1V25.4937Z" fill="#5D5D5D"/>
<path d="M158.384 28.0266H160.486C161.369 28.0382 162.059 28.2648 162.555 28.7063C163.05 29.1478 163.298 29.7481 163.298 30.5071C163.298 31.2701 163.048 31.8781 162.549 32.3313C162.049 32.7844 161.368 33.0187 160.504 33.0342H157.268V24.5759H158.384V28.0266ZM158.384 28.9444V32.1221H160.423C160.976 32.1221 161.406 31.975 161.712 31.6806C162.022 31.3863 162.177 30.9913 162.177 30.4955C162.177 30.0192 162.028 29.6435 161.73 29.3685C161.435 29.0936 161.015 28.9522 160.469 28.9444H158.384Z" fill="#5D5D5D"/>
</g>
<defs>
<clipPath id="clip0_5_41162">
<rect width="167" height="36" fill="white"/>
</clipPath>
</defs>
</svg>
