<svg width="167" height="36" fill="none" xmlns="http://www.w3.org/2000/svg"><g clip-path="url(#a)"><path d="M9.694 15.756c-.358.262-.812.429-1.361.548a7.809 7.809 0 0 1-1.671.167c-.693 0-1.361-.12-1.982-.334a4.321 4.321 0 0 1-1.648-1.048c-.477-.476-.86-1.095-1.146-1.857-.286-.762-.43-1.69-.43-2.786 0-1.143.168-2.095.478-2.857.31-.762.716-1.38 1.218-1.857a4.35 4.35 0 0 1 1.671-1 5.659 5.659 0 0 1 1.862-.31c.669 0 1.218.048 1.672.143.453.095.835.19 1.146.31l-.454 1.928a3.133 3.133 0 0 0-.907-.262 9.573 9.573 0 0 0-1.266-.071c-.907 0-1.647.333-2.22.976-.55.643-.836 1.667-.836 3.024 0 .595.072 1.143.191 1.643.143.5.335.905.597 1.262.263.357.597.62 1.003.81.406.19.86.285 1.409.285.501 0 .907-.047 1.265-.143.334-.095.645-.214.907-.38l.502 1.81z" fill="#5394AD"/><path d="M11.938 4.66h6.877v2.024h-4.608v2.69h4.202V11.4h-4.202v2.833h4.703v2.024h-6.972V4.66z" fill="#B7C136"/><path d="m30.419 10.232.239-2.31h-.096l-.716 1.858-2.46 4.31h-.74l-2.578-4.334-.74-1.834h-.072l.334 2.286v6.024h-2.149V4.66h2.078l3.104 5.286.549 1.334h.071l.502-1.357 2.937-5.263h2.053v11.572h-2.268v-6h-.048z" fill="#E04C38"/><path d="M35.529 4.66h6.876v2.024h-4.608v2.69h4.178V11.4h-4.202v2.833h4.704v2.024h-6.948V4.66z" fill="#5394AD"/><path d="m51.765 9.803.143-1.5h-.072l-.788 1.548-4.321 6.357h-1.72V4.66h2.269v6.31l-.167 1.548h.095l.812-1.595 4.322-6.263h1.695v11.572h-2.268V9.804zM48.54 1.78c.048.358.168.596.382.762.215.167.502.238.836.238.74 0 1.146-.333 1.218-.976l1.838.286c-.12.69-.43 1.19-.955 1.524-.525.333-1.218.476-2.125.476-.453 0-.86-.024-1.241-.095-.382-.072-.717-.167-.98-.334-.262-.166-.525-.357-.692-.595-.19-.262-.286-.571-.334-.952l2.053-.334z" fill="#FFBE3B"/><path d="M63.393 11.375h-4.25v4.834h-2.269V4.66h2.269v4.715h4.25V4.66h2.268v11.572h-2.268v-4.857z" fill="#CC487E"/><path d="M68.502 4.66h2.269v4.143c.119-.023.31-.047.573-.071.262-.024.525-.048.788-.048.549 0 1.074.048 1.575.167.502.12.932.31 1.314.595.382.286.668.667.907 1.143.215.476.334 1.072.334 1.81 0 1.333-.382 2.357-1.17 3.024-.788.667-1.958 1-3.51 1h-.596c-.24 0-.502-.024-.788-.048l-.86-.071a4.713 4.713 0 0 1-.836-.143V4.66zm3.248 9.715c.62 0 1.146-.143 1.528-.428.382-.286.597-.786.597-1.453 0-.357-.048-.667-.168-.905a1.474 1.474 0 0 0-.453-.547c-.191-.143-.406-.215-.669-.262a4.555 4.555 0 0 0-.835-.072c-.144 0-.335.024-.55.048-.215.024-.358.047-.453.095v3.453c.12.024.262.047.43.071h.573zm5.706-9.715h2.268v11.572h-2.268V4.66z" fill="#E04C38"/><path d="m89.323 9.803.143-1.5h-.072l-.788 1.548-4.321 6.357h-1.72V4.66h2.269v6.31l-.167 1.548h.095l.812-1.595 4.322-6.263h1.695v11.572h-2.268V9.804zM86.099 1.78c.048.358.168.596.382.762.215.167.502.238.836.238.74 0 1.146-.333 1.218-.976l1.838.286c-.119.69-.43 1.19-.955 1.524-.525.333-1.217.476-2.125.476-.453 0-.86-.024-1.241-.095-.382-.072-.717-.167-.98-.334a1.88 1.88 0 0 1-.692-.595c-.19-.262-.286-.571-.334-.952l2.053-.334z" fill="#B7C136"/><path d="M105.798 6.66h-4.059v9.549H99.47V4.66h8.596v11.572h-2.268V6.66z" fill="#FFBE3B"/><path d="M110.525 10.446c0-1.928.43-3.405 1.266-4.452.859-1.048 2.077-1.572 3.653-1.572.836 0 1.552.143 2.173.429.621.286 1.122.69 1.552 1.214a5.23 5.23 0 0 1 .907 1.905c.191.738.311 1.572.311 2.453 0 1.928-.43 3.405-1.29 4.452-.859 1.048-2.077 1.572-3.629 1.572-.836 0-1.576-.143-2.197-.429a4.026 4.026 0 0 1-1.528-1.214 5.23 5.23 0 0 1-.907-1.905c-.215-.738-.311-1.548-.311-2.453zm2.388 0c0 .596.048 1.12.143 1.62.096.5.263.904.454 1.261.215.358.478.62.788.834.31.19.692.31 1.146.31.812 0 1.433-.31 1.862-.953.454-.62.669-1.643.669-3.048 0-.571-.048-1.095-.143-1.571a4.631 4.631 0 0 0-.43-1.262 2.275 2.275 0 0 0-.788-.857c-.334-.215-.716-.31-1.17-.31-.812 0-1.433.333-1.862.976-.454.596-.669 1.62-.669 3z" fill="#5394AD"/><path d="M122.822 4.78c.454-.096.979-.167 1.528-.215a19.608 19.608 0 0 1 1.671-.071c.573 0 1.146.047 1.743.143a4.462 4.462 0 0 1 1.576.571 3.57 3.57 0 0 1 1.146 1.167c.287.5.43 1.166.43 1.952 0 .738-.119 1.334-.382 1.834s-.597.905-1.003 1.238c-.43.31-.907.547-1.432.69a6.439 6.439 0 0 1-1.672.215h-.644c-.144 0-.263-.024-.382-.024-.12 0-.215-.024-.263-.024v3.976h-2.268V4.78h-.048zm3.367 1.666c-.215 0-.43 0-.621.024s-.358.048-.478.048v3.762c.048 0 .12.024.191.024.096 0 .191.023.287.023h.501c.311 0 .597-.024.884-.071.286-.048.549-.167.788-.31.238-.143.405-.357.549-.619.143-.262.215-.619.215-1.047 0-.358-.072-.667-.191-.905a1.743 1.743 0 0 0-.526-.572 2.304 2.304 0 0 0-.74-.31c-.286-.07-.573-.047-.859-.047z" fill="#B7C136"/><path d="M141.231 6.66h-3.391v9.549h-2.268V6.66h-3.39v-2h9.049v2z" fill="#CC487E"/><path d="M147.678 13.66h-3.558l-.884 2.572h-2.268l4.179-11.667h1.671l4.178 11.667h-2.387l-.931-2.571zm-2.985-1.809h2.483l-.859-2.571-.359-1.81h-.071l-.358 1.833-.836 2.548z" fill="#FFBE3B"/><path d="M158.446 6.66h-2.459c-.048 1.048-.096 2-.144 2.858a28.978 28.978 0 0 1-.214 2.333c-.096.69-.215 1.31-.382 1.834a5.67 5.67 0 0 1-.597 1.38 2.272 2.272 0 0 1-.526.62 2.94 2.94 0 0 1-.597.405 3.18 3.18 0 0 1-.62.214c-.215.047-.406.047-.573.047-.263 0-.478-.023-.645-.047-.167-.048-.334-.095-.501-.167l.238-1.952c.072.023.144.047.191.047.072 0 .144.024.191.024.167 0 .358-.048.526-.143.167-.095.31-.238.429-.452.167-.238.311-.595.43-1.072.12-.476.239-1.071.334-1.786.096-.738.168-1.595.215-2.595.048-1 .096-2.19.12-3.524h6.852v11.572h-2.268V6.661z" fill="#E04C38"/><path d="M5.652 30.827H2.11l-.796 2.207H.163l3.23-8.458h.976l3.235 8.458H6.46l-.808-2.207zm-3.206-.918H5.32l-1.44-3.956-1.435 3.956zM13.04 24.576l2.764 6.901 2.766-6.901h1.446v8.458h-1.115V29.74l.104-3.555-2.777 6.85h-.854l-2.77-6.832.11 3.537v3.294h-1.116v-8.458h1.441zM27.745 29.485l1.947-4.91h1.295l-2.992 7.047c-.201.45-.389.77-.563.96-.174.185-.38.328-.616.429-.232.097-.525.145-.877.145-.306 0-.502-.017-.587-.052l.035-.883.529.023c.406 0 .708-.196.906-.587l.145-.302.22-.517-2.88-6.262h1.248l2.19 4.909zM36.294 29.723v3.311h-1.115v-8.458h3.12c.925 0 1.649.236 2.172.709.527.472.79 1.098.79 1.876 0 .821-.258 1.454-.773 1.9-.51.441-1.245.662-2.201.662h-1.993zm0-.912h2.004c.597 0 1.054-.14 1.371-.418.318-.283.477-.69.477-1.22 0-.504-.16-.907-.477-1.209-.317-.302-.753-.459-1.307-.47h-2.068v3.317zM51.761 30.35c-.104.895-.435 1.586-.993 2.074-.554.484-1.292.726-2.213.726-1 0-1.801-.358-2.405-1.074-.6-.717-.9-1.675-.9-2.876v-.813c0-.786.139-1.478.417-2.074.283-.597.682-1.054 1.197-1.371.515-.322 1.112-.482 1.79-.482.898 0 1.618.251 2.16.755.543.5.858 1.193.947 2.08h-1.12c-.098-.674-.309-1.162-.634-1.464-.322-.302-.773-.453-1.354-.453-.712 0-1.272.263-1.678.79-.403.526-.605 1.276-.605 2.248v.819c0 .918.192 1.648.575 2.19.384.542.92.813 1.61.813.62 0 1.094-.14 1.423-.418.333-.283.554-.773.662-1.47h1.121zM58.34 29.235h-1.028v3.8h-1.115v-8.46h1.115v3.73h.872l2.957-3.73h1.388l-3.23 4.102 3.468 4.357h-1.365l-3.062-3.8zM71.316 30.827h-3.544l-.796 2.207h-1.15l3.23-8.458h.976l3.236 8.458h-1.145l-.807-2.207zm-3.207-.918h2.876l-1.441-3.956-1.435 3.956zM81.688 33.034V29.74h-1.952l-1.748 3.294h-1.191l1.963-3.602c-1.092-.43-1.638-1.198-1.638-2.306 0-.805.263-1.43.79-1.876.53-.45 1.267-.674 2.208-.674h2.69v8.458h-1.122zm-3.45-5.908c0 .511.158.922.476 1.232.321.31.767.466 1.336.47h1.638v-3.334h-1.586c-.604 0-1.067.143-1.388.43-.318.286-.476.687-.476 1.202zM100.005 29.078c0 .829-.14 1.553-.418 2.173-.279.615-.674 1.086-1.185 1.411-.511.326-1.108.488-1.79.488-.666 0-1.256-.162-1.771-.488-.515-.329-.916-.796-1.203-1.4-.282-.608-.428-1.31-.436-2.108v-.61c0-.814.142-1.532.425-2.156.282-.623.681-1.1 1.196-1.429.52-.333 1.112-.5 1.778-.5.678 0 1.274.165 1.79.494.518.326.917.8 1.196 1.424.279.62.418 1.342.418 2.167v.534zm-1.11-.546c0-1.003-.2-1.772-.603-2.306-.403-.539-.967-.808-1.691-.808-.705 0-1.26.27-1.667.808-.403.534-.61 1.278-.622 2.23v.622c0 .972.203 1.737.61 2.295.41.554.974.83 1.69.83.72 0 1.279-.261 1.674-.784.395-.527.598-1.28.61-2.26v-.627zM109.692 25.494h-4.078v2.533h2.103c.883.011 1.573.238 2.068.68.496.44.744 1.041.744 1.8 0 .763-.25 1.371-.75 1.824-.499.453-1.181.688-2.044.703h-3.242v-8.458h5.199v.918zm-4.078 3.45v3.178h2.039c.554 0 .984-.147 1.29-.441.31-.295.465-.69.465-1.186 0-.476-.149-.852-.448-1.127-.294-.274-.714-.416-1.26-.424h-2.086zM121.291 24.576v8.458h-1.116v-7.54h-3.032l-.151 3.352c-.058 1.123-.174 1.967-.349 2.532-.17.566-.422.982-.755 1.25-.333.263-.778.398-1.336.406h-.366v-.912l.232-.011c.36-.028.637-.144.831-.349.194-.21.341-.54.442-.993.1-.454.172-1.15.214-2.092l.175-4.101h5.211zM130.949 30.827h-3.544l-.796 2.207h-1.15l3.23-8.458h.976l3.236 8.458h-1.145l-.807-2.207zm-3.207-.918h2.876l-1.441-3.956-1.435 3.956zM143.047 30.35c-.105.895-.436 1.586-.994 2.074-.553.484-1.291.726-2.213.726-.999 0-1.801-.358-2.405-1.074-.6-.717-.9-1.675-.9-2.876v-.813c0-.786.139-1.478.418-2.074.283-.597.681-1.054 1.197-1.371.515-.322 1.111-.482 1.789-.482.898 0 1.619.251 2.161.755.542.5.858 1.193.947 2.08h-1.121c-.097-.674-.308-1.162-.634-1.464-.321-.302-.772-.453-1.353-.453-.713 0-1.272.263-1.679.79-.403.526-.604 1.276-.604 2.248v.819c0 .918.191 1.648.575 2.19.383.542.92.813 1.609.813.62 0 1.094-.14 1.423-.418.333-.283.554-.773.663-1.47h1.121zM153.1 25.494h-2.719v7.54h-1.109v-7.54h-2.713v-.918h6.541v.918zM158.384 28.027h2.102c.883.011 1.573.238 2.069.68.495.44.743 1.041.743 1.8 0 .763-.25 1.371-.749 1.824-.5.453-1.181.688-2.045.703h-3.236v-8.458h1.116v3.45zm0 .917v3.178h2.039c.553 0 .983-.147 1.289-.441.31-.295.465-.69.465-1.186 0-.476-.149-.852-.447-1.127-.295-.274-.715-.416-1.261-.424h-2.085z" fill="#5D5D5D"/></g><defs><clipPath id="a"><path fill="#fff" d="M0 0h167v36H0z"/></clipPath></defs></svg>